<svg width="600" height="600" viewBox="0 0 600 600" fill="none" xmlns="http://www.w3.org/2000/svg">
<path fill-rule="evenodd" clip-rule="evenodd" d="M0 300V600H300H600V300V0H300H0V300Z" fill="#BFDBEA"/>
<path fill-rule="evenodd" clip-rule="evenodd" d="M0 300V600H300H600V300V0H300H0V300ZM371.5 240.695C351.696 241.409 333.227 241.436 333.652 240.75C333.909 240.338 344.329 240.092 356.809 240.204C369.289 240.315 375.9 240.537 371.5 240.695ZM445.75 241.747C438.738 241.919 427.262 241.919 420.25 241.747C413.238 241.575 418.975 241.435 433 241.435C447.025 241.435 452.762 241.575 445.75 241.747ZM318.683 248.188C318.364 248.985 318.127 248.748 318.079 247.583C318.036 246.529 318.272 245.939 318.604 246.271C318.936 246.603 318.972 247.466 318.683 248.188ZM317.683 255.188C317.364 255.985 317.127 255.748 317.079 254.583C317.036 253.529 317.272 252.939 317.604 253.271C317.936 253.603 317.972 254.466 317.683 255.188ZM121.683 256.188C121.364 256.985 121.127 256.748 121.079 255.583C121.036 254.529 121.272 253.939 121.604 254.271C121.936 254.603 121.972 255.466 121.683 256.188ZM316.683 262.188C316.364 262.985 316.127 262.748 316.079 261.583C316.036 260.529 316.272 259.939 316.604 260.271C316.936 260.603 316.972 261.466 316.683 262.188ZM120.662 266.25C120.385 266.938 120.158 266.375 120.158 265C120.158 263.625 120.385 263.063 120.662 263.75C120.94 264.438 120.94 265.563 120.662 266.25ZM276.683 269.188C276.364 269.985 276.127 269.748 276.079 268.583C276.036 267.529 276.272 266.939 276.604 267.271C276.936 267.603 276.972 268.466 276.683 269.188ZM315.683 269.188C315.364 269.985 315.127 269.748 315.079 268.583C315.036 267.529 315.272 266.939 315.604 267.271C315.936 267.603 315.972 268.466 315.683 269.188ZM102.25 271.706C101.013 271.944 98.987 271.944 97.75 271.706C96.513 271.467 97.525 271.272 100 271.272C102.475 271.272 103.487 271.467 102.25 271.706ZM119.683 275.188C119.364 275.985 119.127 275.748 119.079 274.583C119.036 273.529 119.272 272.939 119.604 273.271C119.936 273.603 119.972 274.466 119.683 275.188ZM275.683 276.188C275.364 276.985 275.127 276.748 275.079 275.583C275.036 274.529 275.272 273.939 275.604 274.271C275.936 274.603 275.972 275.466 275.683 276.188ZM314.683 276.188C314.364 276.985 314.127 276.748 314.079 275.583C314.036 274.529 314.272 273.939 314.604 274.271C314.936 274.603 314.972 275.466 314.683 276.188ZM116 277.5C117.292 278.875 118.124 280 117.849 280C117.574 280 116.292 278.875 115 277.5C113.708 276.125 112.876 275 113.151 275C113.426 275 114.708 276.125 116 277.5ZM81 278.313C81 278.485 79.537 279.948 77.75 281.563L74.5 284.5L77.437 281.25C80.175 278.221 81 277.54 81 278.313ZM195.788 284.137C195.538 284.886 195.085 284.432 194.731 283.08C194.296 281.417 194.426 281.026 195.168 281.768C195.75 282.35 196.028 283.415 195.788 284.137ZM274.683 283.188C274.364 283.985 274.127 283.748 274.079 282.583C274.036 281.529 274.272 280.939 274.604 281.271C274.936 281.603 274.972 282.466 274.683 283.188ZM313.683 283.188C313.364 283.985 313.127 283.748 313.079 282.583C313.036 281.529 313.272 280.939 313.604 281.271C313.936 281.603 313.972 282.466 313.683 283.188ZM273.683 290.188C273.364 290.985 273.127 290.748 273.079 289.583C273.036 288.529 273.272 287.939 273.604 288.271C273.936 288.603 273.972 289.466 273.683 290.188ZM312.683 290.188C312.364 290.985 312.127 290.748 312.079 289.583C312.036 288.529 312.272 287.939 312.604 288.271C312.936 288.603 312.972 289.466 312.683 290.188ZM197.683 297.188C197.364 297.985 197.127 297.748 197.079 296.583C197.036 295.529 197.272 294.939 197.604 295.271C197.936 295.603 197.972 296.466 197.683 297.188ZM272.683 297.188C272.364 297.985 272.127 297.748 272.079 296.583C272.036 295.529 272.272 294.939 272.604 295.271C272.936 295.603 272.972 296.466 272.683 297.188ZM521.683 298.188C521.364 298.985 521.127 298.748 521.079 297.583C521.036 296.529 521.272 295.939 521.604 296.271C521.936 296.603 521.972 297.466 521.683 298.188ZM271.683 304.188C271.364 304.985 271.127 304.748 271.079 303.583C271.036 302.529 271.272 301.939 271.604 302.271C271.936 302.603 271.972 303.466 271.683 304.188ZM69.683 308.188C69.364 308.985 69.127 308.748 69.079 307.583C69.036 306.529 69.272 305.939 69.604 306.271C69.936 306.603 69.972 307.466 69.683 308.188ZM270.683 311.188C270.364 311.985 270.127 311.748 270.079 310.583C270.036 309.529 270.272 308.939 270.604 309.271C270.936 309.603 270.972 310.466 270.683 311.188ZM523.683 311.188C523.364 311.985 523.127 311.748 523.079 310.583C523.036 309.529 523.272 308.939 523.604 309.271C523.936 309.603 523.972 310.466 523.683 311.188ZM269.683 318.188C269.364 318.985 269.127 318.748 269.079 317.583C269.036 316.529 269.272 315.939 269.604 316.271C269.936 316.603 269.972 317.466 269.683 318.188ZM114.683 322.188C114.364 322.985 114.127 322.748 114.079 321.583C114.036 320.529 114.272 319.939 114.604 320.271C114.936 320.603 114.972 321.466 114.683 322.188ZM307.683 326.188C307.364 326.985 307.127 326.748 307.079 325.583C307.036 324.529 307.272 323.939 307.604 324.271C307.936 324.603 307.972 325.466 307.683 326.188ZM97.729 327.604C97.397 327.936 96.534 327.972 95.813 327.683C95.015 327.364 95.252 327.127 96.417 327.079C97.471 327.036 98.061 327.272 97.729 327.604ZM113.662 332.25C113.385 332.938 113.158 332.375 113.158 331C113.158 329.625 113.385 329.063 113.662 329.75C113.94 330.438 113.94 331.563 113.662 332.25ZM306.683 333.188C306.364 333.985 306.127 333.748 306.079 332.583C306.036 331.529 306.272 330.939 306.604 331.271C306.936 331.603 306.972 332.466 306.683 333.188ZM112.662 341.25C112.385 341.938 112.158 341.375 112.158 340C112.158 338.625 112.385 338.063 112.662 338.75C112.94 339.438 112.94 340.563 112.662 341.25ZM305.683 340.188C305.364 340.985 305.127 340.748 305.079 339.583C305.036 338.529 305.272 337.939 305.604 338.271C305.936 338.603 305.972 339.466 305.683 340.188ZM45 347.5C46.866 349.425 48.167 351 47.892 351C47.617 351 45.866 349.425 44 347.5C42.134 345.575 40.833 344 41.108 344C41.383 344 43.134 345.575 45 347.5ZM304.683 347.188C304.364 347.985 304.127 347.748 304.079 346.583C304.036 345.529 304.272 344.939 304.604 345.271C304.936 345.603 304.972 346.466 304.683 347.188ZM111.683 350.188C111.364 350.985 111.127 350.748 111.079 349.583C111.036 348.529 111.272 347.939 111.604 348.271C111.936 348.603 111.972 349.466 111.683 350.188ZM303.683 354.188C303.364 354.985 303.127 354.748 303.079 353.583C303.036 352.529 303.272 351.939 303.604 352.271C303.936 352.603 303.972 353.466 303.683 354.188ZM160.5 359C160.114 359.624 152.48 359.918 140.191 359.782L120.5 359.564L140.5 359C151.5 358.69 160.639 358.338 160.809 358.218C160.979 358.098 160.84 358.45 160.5 359ZM227.573 359.771C217.163 359.922 208.297 359.698 207.871 359.273C207.444 358.848 215.962 358.724 226.798 358.998L246.5 359.496L227.573 359.771ZM484.5 359C484.114 359.624 476.48 359.918 464.191 359.782L444.5 359.564L464.5 359C475.5 358.69 484.639 358.338 484.809 358.218C484.979 358.098 484.84 358.45 484.5 359ZM551.573 359.771C541.163 359.922 532.297 359.698 531.871 359.273C531.444 358.848 539.962 358.724 550.798 358.998L570.5 359.496L551.573 359.771ZM292.75 359.746C287.387 359.925 278.613 359.925 273.25 359.746C267.887 359.566 272.275 359.419 283 359.419C293.725 359.419 298.113 359.566 292.75 359.746ZM90.729 360.604C90.397 360.936 89.534 360.972 88.813 360.683C88.015 360.364 88.252 360.127 89.417 360.079C90.471 360.036 91.061 360.272 90.729 360.604Z" fill="#7FB7D7"/>
<path fill-rule="evenodd" clip-rule="evenodd" d="M0 300V600H300H600V300V0H300H0V300ZM87.25 239.662C86.563 239.94 85.438 239.94 84.75 239.662C84.063 239.385 84.625 239.158 86 239.158C87.375 239.158 87.938 239.385 87.25 239.662ZM105.25 239.662C104.563 239.94 103.438 239.94 102.75 239.662C102.063 239.385 102.625 239.158 104 239.158C105.375 239.158 105.938 239.385 105.25 239.662ZM81.729 240.604C81.397 240.936 80.534 240.972 79.813 240.683C79.015 240.364 79.252 240.127 80.417 240.079C81.471 240.036 82.061 240.272 81.729 240.604ZM109.729 240.604C109.397 240.936 108.534 240.972 107.813 240.683C107.015 240.364 107.252 240.127 108.417 240.079C109.471 240.036 110.061 240.272 109.729 240.604ZM371.5 240.695C351.696 241.409 333.227 241.436 333.652 240.75C333.909 240.338 344.329 240.092 356.809 240.204C369.289 240.315 375.9 240.537 371.5 240.695ZM222.633 243.765C222.744 245.65 222.69 245.692 222.314 244.015C221.877 242.071 221.1 242 200.101 242H178.342L176.001 246.997C174.714 249.745 173.482 251.815 173.263 251.597C173.044 251.378 174.033 248.896 175.459 246.08L178.053 240.962L200.277 241.231L222.5 241.5L222.633 243.765ZM313 241.686C297.166 242.404 279.997 242.437 279.998 241.75C279.999 241.338 288.887 241.088 299.75 241.196C310.613 241.304 316.575 241.524 313 241.686ZM381.382 242.552C381.723 243.442 381.555 243.843 380.989 243.493C380.445 243.157 380 242.459 380 241.941C380 240.503 380.717 240.82 381.382 242.552ZM445.75 241.747C438.738 241.919 427.262 241.919 420.25 241.747C413.238 241.575 418.975 241.435 433 241.435C447.025 241.435 452.762 241.575 445.75 241.747ZM524.447 241.748L502.393 242.037L498.004 250.992C495.59 255.918 493.448 259.781 493.245 259.578C493.041 259.375 494.933 255.112 497.448 250.104L502.02 241L524.26 241.23L546.5 241.46L524.447 241.748ZM71.917 243.373C70.896 244.286 65 247.001 65 246.558C65 245.936 70.185 243.094 71.417 243.04C71.921 243.018 72.146 243.168 71.917 243.373ZM120.777 244.557C122 245.413 123 246.624 123 247.248C123 247.872 122.438 247.677 121.75 246.815C121.063 245.954 119.6 244.756 118.5 244.155C117.4 243.553 116.962 243.047 117.527 243.03C118.093 243.014 119.555 243.701 120.777 244.557ZM336 245C336.589 246.1 336.845 247 336.57 247C336.295 247 335.589 246.1 335 245C334.411 243.9 334.155 243 334.43 243C334.705 243 335.411 243.9 336 245ZM546.683 245.188C546.364 245.985 546.127 245.748 546.079 244.583C546.036 243.529 546.272 242.939 546.604 243.271C546.936 243.603 546.972 244.466 546.683 245.188ZM318.693 247.731C318.439 248.704 318.215 248.15 318.195 246.5C318.175 244.85 318.382 244.054 318.656 244.731C318.93 245.408 318.947 246.758 318.693 247.731ZM384 247C384.589 248.1 384.845 249 384.57 249C384.295 249 383.589 248.1 383 247C382.411 245.9 382.155 245 382.43 245C382.705 245 383.411 245.9 384 247ZM279.662 249.25C279.385 249.938 279.158 249.375 279.158 248C279.158 246.625 279.385 246.063 279.662 246.75C279.94 247.438 279.94 248.563 279.662 249.25ZM64 247.385C64 247.597 62.763 248.523 61.25 249.444L58.5 251.119L60.861 249.059C63.165 247.05 64 246.604 64 247.385ZM223.683 249.188C223.364 249.985 223.127 249.748 223.079 248.583C223.036 247.529 223.272 246.939 223.604 247.271C223.936 247.603 223.972 248.466 223.683 249.188ZM547.683 250.188C547.364 250.985 547.127 250.748 547.079 249.583C547.036 248.529 547.272 247.939 547.604 248.271C547.936 248.603 547.972 249.466 547.683 250.188ZM340 252C340.589 253.1 340.845 254 340.57 254C340.295 254 339.589 253.1 339 252C338.411 250.9 338.155 250 338.43 250C338.705 250 339.411 250.9 340 252ZM58 251.345C58 251.535 56.987 252.547 55.75 253.595L53.5 255.5L55.405 253.25C57.195 251.136 58 250.545 58 251.345ZM121.689 255.75C121.438 256.712 121.232 255.925 121.232 254C121.232 252.075 121.438 251.287 121.689 252.25C121.941 253.213 121.941 254.787 121.689 255.75ZM317.693 254.731C317.439 255.704 317.215 255.15 317.195 253.5C317.175 251.85 317.382 251.054 317.656 251.731C317.93 252.408 317.947 253.758 317.693 254.731ZM224.683 254.188C224.364 254.985 224.127 254.748 224.079 253.583C224.036 252.529 224.272 251.939 224.604 252.271C224.936 252.603 224.972 253.466 224.683 254.188ZM388 254C388.589 255.1 388.845 256 388.57 256C388.295 256 387.589 255.1 387 254C386.411 252.9 386.155 252 386.43 252C386.705 252 387.411 252.9 388 254ZM278.662 256.25C278.385 256.938 278.158 256.375 278.158 255C278.158 253.625 278.385 253.063 278.662 253.75C278.94 254.438 278.94 255.563 278.662 256.25ZM548.683 255.188C548.364 255.985 548.127 255.748 548.079 254.583C548.036 253.529 548.272 252.939 548.604 253.271C548.936 253.603 548.972 254.466 548.683 255.188ZM343 257C343.589 258.1 343.845 259 343.57 259C343.295 259 342.589 258.1 342 257C341.411 255.9 341.155 255 341.43 255C341.705 255 342.411 255.9 343 257ZM225.683 259.188C225.364 259.985 225.127 259.748 225.079 258.583C225.036 257.529 225.272 256.939 225.604 257.271C225.936 257.603 225.972 258.466 225.683 259.188ZM549.662 260.25C549.385 260.938 549.158 260.375 549.158 259C549.158 257.625 549.385 257.063 549.662 257.75C549.94 258.438 549.94 259.563 549.662 260.25ZM316.693 261.731C316.439 262.704 316.215 262.15 316.195 260.5C316.175 258.85 316.382 258.054 316.656 258.731C316.93 259.408 316.947 260.758 316.693 261.731ZM49 260.326C49 260.505 47.763 261.742 46.25 263.076L43.5 265.5L45.924 262.75C48.19 260.18 49 259.541 49 260.326ZM277.693 263.731C277.439 264.704 277.215 264.15 277.195 262.5C277.175 260.85 277.382 260.054 277.656 260.731C277.93 261.408 277.947 262.758 277.693 263.731ZM120.689 265.75C120.438 266.712 120.232 265.925 120.232 264C120.232 262.075 120.438 261.288 120.689 262.25C120.941 263.212 120.941 264.788 120.689 265.75ZM226.683 264.188C226.364 264.985 226.127 264.748 226.079 263.583C226.036 262.529 226.272 261.939 226.604 262.271C226.936 262.603 226.972 263.466 226.683 264.188ZM347 264C347.589 265.1 347.845 266 347.57 266C347.295 266 346.589 265.1 346 264C345.411 262.9 345.155 262 345.43 262C345.705 262 346.411 262.9 347 264ZM550.662 265.25C550.385 265.938 550.158 265.375 550.158 264C550.158 262.625 550.385 262.063 550.662 262.75C550.94 263.438 550.94 264.563 550.662 265.25ZM315.693 268.731C315.439 269.704 315.215 269.15 315.195 267.5C315.175 265.85 315.382 265.054 315.656 265.731C315.93 266.408 315.947 267.758 315.693 268.731ZM42.408 268.5C41.507 269.875 40.57 271 40.326 271C39.836 271 40.779 269.188 42.278 267.25C44 265.024 44.094 265.927 42.408 268.5ZM227.683 269.188C227.364 269.985 227.127 269.748 227.079 268.583C227.036 267.529 227.272 266.939 227.604 267.271C227.936 267.603 227.972 268.466 227.683 269.188ZM276.693 270.731C276.439 271.704 276.215 271.15 276.195 269.5C276.175 267.85 276.382 267.054 276.656 267.731C276.93 268.408 276.947 269.758 276.693 270.731ZM551.683 269.188C551.364 269.985 551.127 269.748 551.079 268.583C551.036 267.529 551.272 266.939 551.604 267.271C551.936 267.603 551.972 268.466 551.683 269.188ZM351 271C351.589 272.1 351.845 273 351.57 273C351.295 273 350.589 272.1 350 271C349.411 269.9 349.155 269 349.43 269C349.705 269 350.411 269.9 351 271ZM119.689 274.75C119.438 275.712 119.232 274.925 119.232 273C119.232 271.075 119.438 270.288 119.689 271.25C119.941 272.212 119.941 273.788 119.689 274.75ZM102.768 271.715C101.265 271.943 98.565 271.947 96.768 271.725C94.971 271.502 96.2 271.315 99.5 271.31C102.8 271.304 104.271 271.486 102.768 271.715ZM37.798 276.478C36.602 278.941 35.451 280.785 35.242 280.575C34.789 280.123 38.83 272 39.507 272C39.764 272 38.995 274.015 37.798 276.478ZM110.316 273.147C113.174 274.647 119.324 280 118.19 280C117.706 280 116.453 279.053 115.406 277.896C114.359 276.739 111.927 274.959 110.001 273.94C108.075 272.922 106.867 272.069 107.316 272.044C107.764 272.02 109.114 272.516 110.316 273.147ZM228.683 274.188C228.364 274.985 228.127 274.748 228.079 273.583C228.036 272.529 228.272 271.939 228.604 272.271C228.936 272.603 228.972 273.466 228.683 274.188ZM314.693 275.731C314.439 276.704 314.215 276.15 314.195 274.5C314.175 272.85 314.382 272.054 314.656 272.731C314.93 273.408 314.947 274.758 314.693 275.731ZM552.683 274.188C552.364 274.985 552.127 274.748 552.079 273.583C552.036 272.529 552.272 271.939 552.604 272.271C552.936 272.603 552.972 273.466 552.683 274.188ZM158.614 282.646C156.132 287.516 154.078 291.169 154.051 290.765C153.975 289.668 162.35 273.017 162.767 273.434C162.964 273.631 161.095 277.777 158.614 282.646ZM275.693 277.731C275.439 278.704 275.215 278.15 275.195 276.5C275.175 274.85 275.382 274.054 275.656 274.731C275.93 275.408 275.947 276.758 275.693 277.731ZM354 276C354.589 277.1 354.845 278 354.57 278C354.295 278 353.589 277.1 353 276C352.411 274.9 352.155 274 352.43 274C352.705 274 353.411 274.9 354 276ZM229.662 279.25C229.385 279.938 229.158 279.375 229.158 278C229.158 276.625 229.385 276.063 229.662 276.75C229.94 277.438 229.94 278.563 229.662 279.25ZM82 277.297C82 277.46 80.088 279.373 77.75 281.547L73.5 285.5L77.453 281.25C81.129 277.298 82 276.54 82 277.297ZM553.683 279.188C553.364 279.985 553.127 279.748 553.079 278.583C553.036 277.529 553.272 276.939 553.604 277.271C553.936 277.603 553.972 278.466 553.683 279.188ZM313.693 282.731C313.439 283.704 313.215 283.15 313.195 281.5C313.175 279.85 313.382 279.054 313.656 279.731C313.93 280.408 313.947 281.758 313.693 282.731ZM196 283C196 284.1 195.827 285 195.617 285C195.406 285 194.998 284.1 194.71 283C194.423 281.9 194.595 281 195.094 281C195.592 281 196 281.9 196 283ZM230.662 284.25C230.385 284.938 230.158 284.375 230.158 283C230.158 281.625 230.385 281.063 230.662 281.75C230.94 282.438 230.94 283.563 230.662 284.25ZM274.693 284.731C274.439 285.704 274.215 285.15 274.195 283.5C274.175 281.85 274.382 281.054 274.656 281.731C274.93 282.408 274.947 283.758 274.693 284.731ZM358 283C358.589 284.1 358.845 285 358.57 285C358.295 285 357.589 284.1 357 283C356.411 281.9 356.155 281 356.43 281C356.705 281 357.411 281.9 358 283ZM520 283C520 284.1 519.827 285 519.617 285C519.406 285 518.998 284.1 518.71 283C518.423 281.9 518.595 281 519.094 281C519.592 281 520 281.9 520 283ZM554.683 284.188C554.364 284.985 554.127 284.748 554.079 283.583C554.036 282.529 554.272 281.939 554.604 282.271C554.936 282.603 554.972 283.466 554.683 284.188ZM478.114 291.647C475.906 295.966 474.077 299.17 474.05 298.767C473.975 297.665 481.347 283.014 481.766 283.432C481.965 283.631 480.321 287.328 478.114 291.647ZM517.122 285.675C515.943 287.702 515.659 287.053 516.624 284.539C516.966 283.645 517.458 283.124 517.715 283.382C517.973 283.639 517.706 284.671 517.122 285.675ZM72.816 288.504C72.189 289.882 71.487 290.82 71.257 290.59C70.789 290.123 72.817 286 73.514 286C73.758 286 73.444 287.127 72.816 288.504ZM231.683 288.188C231.364 288.985 231.127 288.748 231.079 287.583C231.036 286.529 231.272 285.939 231.604 286.271C231.936 286.603 231.972 287.466 231.683 288.188ZM312.693 289.731C312.439 290.704 312.215 290.15 312.195 288.5C312.175 286.85 312.382 286.054 312.656 286.731C312.93 287.408 312.947 288.758 312.693 289.731ZM361 288C361.589 289.1 361.845 290 361.57 290C361.295 290 360.589 289.1 360 288C359.411 286.9 359.155 286 359.43 286C359.705 286 360.411 286.9 361 288ZM196.662 290.25C196.385 290.938 196.158 290.375 196.158 289C196.158 287.625 196.385 287.063 196.662 287.75C196.94 288.438 196.94 289.563 196.662 290.25ZM555.683 289.188C555.364 289.985 555.127 289.748 555.079 288.583C555.036 287.529 555.272 286.939 555.604 287.271C555.936 287.603 555.972 288.466 555.683 289.188ZM273.693 291.731C273.439 292.704 273.215 292.15 273.195 290.5C273.175 288.85 273.382 288.054 273.656 288.731C273.93 289.408 273.947 290.758 273.693 291.731ZM515.122 290.675C513.943 292.702 513.659 292.053 514.624 289.539C514.966 288.645 515.458 288.124 515.715 288.382C515.973 288.639 515.706 289.671 515.122 290.675ZM520.662 291.25C520.385 291.938 520.158 291.375 520.158 290C520.158 288.625 520.385 288.063 520.662 288.75C520.94 289.438 520.94 290.563 520.662 291.25ZM232.683 293.188C232.364 293.985 232.127 293.748 232.079 292.583C232.036 291.529 232.272 290.939 232.604 291.271C232.936 291.603 232.972 292.466 232.683 293.188ZM31.683 294.188C31.364 294.985 31.127 294.748 31.079 293.583C31.036 292.529 31.272 291.939 31.604 292.271C31.936 292.603 31.972 293.466 31.683 294.188ZM556.683 294.188C556.364 294.985 556.127 294.748 556.079 293.583C556.036 292.529 556.272 291.939 556.604 292.271C556.936 292.603 556.972 293.466 556.683 294.188ZM197.693 296.731C197.439 297.704 197.215 297.15 197.195 295.5C197.175 293.85 197.382 293.054 197.656 293.731C197.93 294.408 197.947 295.758 197.693 296.731ZM311.693 296.731C311.439 297.704 311.215 297.15 311.195 295.5C311.175 293.85 311.382 293.054 311.656 293.731C311.93 294.408 311.947 295.758 311.693 296.731ZM364.807 295.526C364.499 295.834 363.94 295.279 363.564 294.293C363.022 292.868 363.136 292.753 364.124 293.733C364.808 294.412 365.115 295.219 364.807 295.526ZM513.122 295.675C511.943 297.702 511.659 297.053 512.624 294.539C512.966 293.645 513.458 293.124 513.715 293.382C513.973 293.639 513.706 294.671 513.122 295.675ZM521.693 297.731C521.439 298.704 521.215 298.15 521.195 296.5C521.175 294.85 521.382 294.054 521.656 294.731C521.93 295.408 521.947 296.758 521.693 297.731ZM69.662 298.25C69.385 298.938 69.158 298.375 69.158 297C69.158 295.625 69.385 295.063 69.662 295.75C69.94 296.438 69.94 297.563 69.662 298.25ZM272.693 298.731C272.439 299.704 272.215 299.15 272.195 297.5C272.175 295.85 272.382 295.054 272.656 295.731C272.93 296.408 272.947 297.758 272.693 298.731ZM233.683 298.188C233.364 298.985 233.127 298.748 233.079 297.583C233.036 296.529 233.272 295.939 233.604 296.271C233.936 296.603 233.972 297.466 233.683 298.188ZM557.662 299.25C557.385 299.938 557.158 299.375 557.158 298C557.158 296.625 557.385 296.063 557.662 296.75C557.94 297.438 557.94 298.563 557.662 299.25ZM30.662 300.25C30.385 300.938 30.158 300.375 30.158 299C30.158 297.625 30.385 297.063 30.662 297.75C30.94 298.438 30.94 299.563 30.662 300.25ZM511.122 300.675C509.943 302.702 509.659 302.053 510.624 299.539C510.966 298.645 511.458 298.124 511.715 298.382C511.973 298.639 511.706 299.671 511.122 300.675ZM198.662 303.25C198.385 303.938 198.158 303.375 198.158 302C198.158 300.625 198.385 300.063 198.662 300.75C198.94 301.438 198.94 302.563 198.662 303.25ZM234.683 303.188C234.364 303.985 234.127 303.748 234.079 302.583C234.036 301.529 234.272 300.939 234.604 301.271C234.936 301.603 234.972 302.466 234.683 303.188ZM310.662 304.25C310.385 304.938 310.158 304.375 310.158 303C310.158 301.625 310.385 301.063 310.662 301.75C310.94 302.438 310.94 303.563 310.662 304.25ZM522.662 304.25C522.385 304.938 522.158 304.375 522.158 303C522.158 301.625 522.385 301.063 522.662 301.75C522.94 302.438 522.94 303.563 522.662 304.25ZM558.662 304.25C558.385 304.938 558.158 304.375 558.158 303C558.158 301.625 558.385 301.063 558.662 301.75C558.94 302.438 558.94 303.563 558.662 304.25ZM271.693 305.731C271.439 306.704 271.215 306.15 271.195 304.5C271.175 302.85 271.382 302.054 271.656 302.731C271.93 303.408 271.947 304.758 271.693 305.731ZM509.122 305.675C507.943 307.702 507.659 307.053 508.624 304.539C508.966 303.645 509.458 303.124 509.715 303.382C509.973 303.639 509.706 304.671 509.122 305.675ZM69.662 309.25C69.385 309.938 69.158 309.375 69.158 308C69.158 306.625 69.385 306.063 69.662 306.75C69.94 307.438 69.94 308.563 69.662 309.25ZM235.683 308.188C235.364 308.985 235.127 308.748 235.079 307.583C235.036 306.529 235.272 305.939 235.604 306.271C235.936 306.603 235.972 307.466 235.683 308.188ZM559.683 308.188C559.364 308.985 559.127 308.748 559.079 307.583C559.036 306.529 559.272 305.939 559.604 306.271C559.936 306.603 559.972 307.466 559.683 308.188ZM199.662 310.25C199.385 310.938 199.158 310.375 199.158 309C199.158 307.625 199.385 307.063 199.662 307.75C199.94 308.438 199.94 309.563 199.662 310.25ZM523.693 310.731C523.439 311.704 523.215 311.15 523.195 309.5C523.175 307.85 523.382 307.054 523.656 307.731C523.93 308.408 523.947 309.758 523.693 310.731ZM309.662 311.25C309.385 311.938 309.158 311.375 309.158 310C309.158 308.625 309.385 308.063 309.662 308.75C309.94 309.438 309.94 310.563 309.662 311.25ZM507.122 310.675C505.943 312.702 505.659 312.053 506.624 309.539C506.966 308.645 507.458 308.124 507.715 308.382C507.973 308.639 507.706 309.671 507.122 310.675ZM270.693 312.731C270.439 313.704 270.215 313.15 270.195 311.5C270.175 309.85 270.382 309.054 270.656 309.731C270.93 310.408 270.947 311.758 270.693 312.731ZM236.662 313.25C236.385 313.938 236.158 313.375 236.158 312C236.158 310.625 236.385 310.063 236.662 310.75C236.94 311.438 236.94 312.563 236.662 313.25ZM560.683 313.188C560.364 313.985 560.127 313.748 560.079 312.583C560.036 311.529 560.272 310.939 560.604 311.271C560.936 311.603 560.972 312.466 560.683 313.188ZM73.362 317.5L75.119 320.5L73.059 318.139C71.927 316.841 71 315.303 71 314.723C71 313.493 71.05 313.552 73.362 317.5ZM138.614 323.646C136.132 328.516 134.078 332.169 134.051 331.765C133.975 330.668 142.35 314.017 142.767 314.434C142.964 314.631 141.095 318.777 138.614 323.646ZM237.662 318.25C237.385 318.938 237.158 318.375 237.158 317C237.158 315.625 237.385 315.063 237.662 315.75C237.94 316.438 237.94 317.563 237.662 318.25ZM308.662 318.25C308.385 318.938 308.158 318.375 308.158 317C308.158 315.625 308.385 315.063 308.662 315.75C308.94 316.438 308.94 317.563 308.662 318.25ZM269.693 319.731C269.439 320.704 269.215 320.15 269.195 318.5C269.175 316.85 269.382 316.054 269.656 316.731C269.93 317.408 269.947 318.758 269.693 319.731ZM561.683 318.188C561.364 318.985 561.127 318.748 561.079 317.583C561.036 316.529 561.272 315.939 561.604 316.271C561.936 316.603 561.972 317.466 561.683 318.188ZM30.662 320.25C30.385 320.938 30.158 320.375 30.158 319C30.158 317.625 30.385 317.063 30.662 317.75C30.94 318.438 30.94 319.563 30.662 320.25ZM418 319C418.589 320.1 418.845 321 418.57 321C418.295 321 417.589 320.1 417 319C416.411 317.9 416.155 317 416.43 317C416.705 317 417.411 317.9 418 319ZM114.693 321.731C114.439 322.704 114.215 322.15 114.195 320.5C114.175 318.85 114.382 318.054 114.656 318.731C114.93 319.408 114.947 320.758 114.693 321.731ZM112 320.378C112 320.585 111.213 321.373 110.25 322.128C108.664 323.371 108.629 323.336 109.872 321.75C111.179 320.084 112 319.555 112 320.378ZM238.683 322.188C238.364 322.985 238.127 322.748 238.079 321.583C238.036 320.529 238.272 319.939 238.604 320.271C238.936 320.603 238.972 321.466 238.683 322.188ZM562.683 323.188C562.364 323.985 562.127 323.748 562.079 322.583C562.036 321.529 562.272 320.939 562.604 321.271C562.936 321.603 562.972 322.466 562.683 323.188ZM79.128 323.75C80.371 325.336 80.336 325.371 78.75 324.128C77.084 322.821 76.555 322 77.378 322C77.585 322 78.373 322.788 79.128 323.75ZM307.693 325.731C307.439 326.704 307.215 326.15 307.195 324.5C307.175 322.85 307.382 322.054 307.656 322.731C307.93 323.408 307.947 324.758 307.693 325.731ZM421 324C421.589 325.1 421.845 326 421.57 326C421.295 326 420.589 325.1 420 324C419.411 322.9 419.155 322 419.43 322C419.705 322 420.411 322.9 421 324ZM458.614 331.646C456.132 336.516 454.078 340.169 454.051 339.765C453.975 338.668 462.35 322.017 462.767 322.434C462.964 322.631 461.095 326.777 458.614 331.646ZM106.559 324.532C105.491 325.339 104.141 325.984 103.559 325.965C102.976 325.945 103.625 325.286 105 324.5C108.239 322.648 109.028 322.664 106.559 324.532ZM268.662 327.25C268.385 327.938 268.158 327.375 268.158 326C268.158 324.625 268.385 324.063 268.662 324.75C268.94 325.438 268.94 326.563 268.662 327.25ZM239.683 327.188C239.364 327.985 239.127 327.748 239.079 326.583C239.036 325.529 239.272 324.939 239.604 325.271C239.936 325.603 239.972 326.466 239.683 327.188ZM32.683 328.188C32.364 328.985 32.127 328.748 32.079 327.583C32.036 326.529 32.272 325.939 32.604 326.271C32.936 326.603 32.972 327.466 32.683 328.188ZM113.707 331.238C113.468 332.482 113.263 331.7 113.252 329.5C113.241 327.3 113.437 326.282 113.687 327.238C113.937 328.194 113.946 329.994 113.707 331.238ZM563.683 328.188C563.364 328.985 563.127 328.748 563.079 327.583C563.036 326.529 563.272 325.939 563.604 326.271C563.936 326.603 563.972 327.466 563.683 328.188ZM89.25 327.662C88.563 327.94 87.438 327.94 86.75 327.662C86.063 327.385 86.625 327.158 88 327.158C89.375 327.158 89.938 327.385 89.25 327.662ZM98.25 327.662C97.563 327.94 96.438 327.94 95.75 327.662C95.063 327.385 95.625 327.158 97 327.158C98.375 327.158 98.938 327.385 98.25 327.662ZM424 329C424.589 330.1 424.845 331 424.57 331C424.295 331 423.589 330.1 423 329C422.411 327.9 422.155 327 422.43 327C422.705 327 423.411 327.9 424 329ZM306.693 332.731C306.439 333.704 306.215 333.15 306.195 331.5C306.175 329.85 306.382 329.054 306.656 329.731C306.93 330.408 306.947 331.758 306.693 332.731ZM240.683 332.188C240.364 332.985 240.127 332.748 240.079 331.583C240.036 330.529 240.272 329.939 240.604 330.271C240.936 330.603 240.972 331.466 240.683 332.188ZM564.662 333.25C564.385 333.938 564.158 333.375 564.158 332C564.158 330.625 564.385 330.063 564.662 330.75C564.94 331.438 564.94 332.563 564.662 333.25ZM267.662 334.25C267.385 334.938 267.158 334.375 267.158 333C267.158 331.625 267.385 331.063 267.662 331.75C267.94 332.438 267.94 333.563 267.662 334.25ZM36.399 335.75C37.308 337.538 37.826 339 37.551 339C36.975 339 34 333.456 34 332.383C34 331.339 34.542 332.1 36.399 335.75ZM427 334C427.589 335.1 427.845 336 427.57 336C427.295 336 426.589 335.1 426 334C425.411 332.9 425.155 332 425.43 332C425.705 332 426.411 332.9 427 334ZM241.683 337.188C241.364 337.985 241.127 337.748 241.079 336.583C241.036 335.529 241.272 334.939 241.604 335.271C241.936 335.603 241.972 336.466 241.683 337.188ZM565.662 338.25C565.385 338.938 565.158 338.375 565.158 337C565.158 335.625 565.385 335.063 565.662 335.75C565.94 336.438 565.94 337.563 565.662 338.25ZM112.689 340.75C112.438 341.712 112.232 340.925 112.232 339C112.232 337.075 112.438 336.288 112.689 337.25C112.941 338.212 112.941 339.788 112.689 340.75ZM305.693 339.731C305.439 340.704 305.215 340.15 305.195 338.5C305.175 336.85 305.382 336.054 305.656 336.731C305.93 337.408 305.947 338.758 305.693 339.731ZM266.662 341.25C266.385 341.938 266.158 341.375 266.158 340C266.158 338.625 266.385 338.063 266.662 338.75C266.94 339.438 266.94 340.563 266.662 341.25ZM40.128 341.75C41.371 343.336 41.336 343.371 39.75 342.128C38.788 341.373 38 340.585 38 340.378C38 339.555 38.821 340.084 40.128 341.75ZM242.683 342.188C242.364 342.985 242.127 342.748 242.079 341.583C242.036 340.529 242.272 339.939 242.604 340.271C242.936 340.603 242.972 341.466 242.683 342.188ZM566.683 342.188C566.364 342.985 566.127 342.748 566.079 341.583C566.036 340.529 566.272 339.939 566.604 340.271C566.936 340.603 566.972 341.466 566.683 342.188ZM384 343C384.589 344.1 384.845 345 384.57 345C384.295 345 383.589 344.1 383 343C382.411 341.9 382.155 341 382.43 341C382.705 341 383.411 341.9 384 343ZM186.75 343.749C176.438 343.911 168 344.398 168 344.831C168 345.264 167.303 346.491 166.452 347.559C165.084 349.273 165.087 349.121 166.477 346.25L168.051 343L186.776 343.227L205.5 343.453L186.75 343.749ZM304.693 346.731C304.439 347.704 304.215 347.15 304.195 345.5C304.175 343.85 304.382 343.054 304.656 343.731C304.93 344.408 304.947 345.758 304.693 346.731ZM511.093 343.749C495.09 344.008 492.504 344.272 491.288 345.773C490.037 347.318 490.004 347.263 490.98 345.25C492.059 343.023 492.262 343.002 510.785 343.226L529.5 343.452L511.093 343.749ZM45 347.5C46.866 349.425 48.167 351 47.892 351C47.617 351 45.866 349.425 44 347.5C42.134 345.575 40.833 344 41.108 344C41.383 344 43.134 345.575 45 347.5ZM111.689 349.75C111.438 350.712 111.232 349.925 111.232 348C111.232 346.075 111.438 345.288 111.689 346.25C111.941 347.212 111.941 348.788 111.689 349.75ZM205.662 348.25C205.385 348.938 205.158 348.375 205.158 347C205.158 345.625 205.385 345.063 205.662 345.75C205.94 346.438 205.94 347.563 205.662 348.25ZM243.683 347.188C243.364 347.985 243.127 347.748 243.079 346.583C243.036 345.529 243.272 344.939 243.604 345.271C243.936 345.603 243.972 346.466 243.683 347.188ZM265.693 348.731C265.439 349.704 265.215 349.15 265.195 347.5C265.175 345.85 265.382 345.054 265.656 345.731C265.93 346.408 265.947 347.758 265.693 348.731ZM567.683 347.188C567.364 347.985 567.127 347.748 567.079 346.583C567.036 345.529 567.272 344.939 567.604 345.271C567.936 345.603 567.972 346.466 567.683 347.188ZM387 348C387.589 349.1 387.845 350 387.57 350C387.295 350 386.589 349.1 386 348C385.411 346.9 385.155 346 385.43 346C385.705 346 386.411 346.9 387 348ZM529.683 348.188C529.364 348.985 529.127 348.748 529.079 347.583C529.036 346.529 529.272 345.939 529.604 346.271C529.936 346.603 529.972 347.466 529.683 348.188ZM244.662 352.25C244.385 352.938 244.158 352.375 244.158 351C244.158 349.625 244.385 349.063 244.662 349.75C244.94 350.438 244.94 351.563 244.662 352.25ZM303.693 353.731C303.439 354.704 303.215 354.15 303.195 352.5C303.175 350.85 303.382 350.054 303.656 350.731C303.93 351.408 303.947 352.758 303.693 353.731ZM438 352C438.589 353.1 438.845 354 438.57 354C438.295 354 437.589 353.1 437 352C436.411 350.9 436.155 350 436.43 350C436.705 350 437.411 350.9 438 352ZM568.683 352.188C568.364 352.985 568.127 352.748 568.079 351.583C568.036 350.529 568.272 349.939 568.604 350.271C568.936 350.603 568.972 351.466 568.683 352.188ZM51.128 352.75C52.371 354.336 52.336 354.371 50.75 353.128C49.084 351.821 48.555 351 49.378 351C49.585 351 50.373 351.788 51.128 352.75ZM206.683 353.188C206.364 353.985 206.127 353.748 206.079 352.583C206.036 351.529 206.272 350.939 206.604 351.271C206.936 351.603 206.972 352.466 206.683 353.188ZM390 353C390.589 354.1 390.845 355 390.57 355C390.295 355 389.589 354.1 389 353C388.411 351.9 388.155 351 388.43 351C388.705 351 389.411 351.9 390 353ZM530.662 354.25C530.385 354.938 530.158 354.375 530.158 353C530.158 351.625 530.385 351.063 530.662 351.75C530.94 352.438 530.94 353.563 530.662 354.25ZM264.693 355.731C264.439 356.704 264.215 356.15 264.195 354.5C264.175 352.85 264.382 352.054 264.656 352.731C264.93 353.408 264.947 354.758 264.693 355.731ZM109 354.5C107.625 355.286 106.05 355.929 105.5 355.929C104.95 355.929 105.625 355.286 107 354.5C108.375 353.714 109.95 353.071 110.5 353.071C111.05 353.071 110.375 353.714 109 354.5ZM123.081 355.849C122.486 356.96 122 358.123 122 358.434C122 358.745 130.388 359 140.64 359C157.186 359 159.438 358.803 160.695 357.25C161.972 355.671 162.004 355.719 161.02 357.75C159.945 359.969 159.661 360 140.465 360C128.796 360 121 359.618 121 359.047C121 357.594 123.268 352.934 123.743 353.41C123.974 353.64 123.676 354.738 123.081 355.849ZM59.58 357.753C59.123 358.21 53 355.175 53 354.49C53 354.239 54.569 354.781 56.487 355.695C58.406 356.61 59.797 357.536 59.58 357.753ZM245.662 357.25C245.385 357.938 245.158 357.375 245.158 356C245.158 354.625 245.385 354.063 245.662 354.75C245.94 355.438 245.94 356.563 245.662 357.25ZM485.5 357L483.949 360L464.224 359.772L444.5 359.545L464.099 359.252L483.698 358.959L484.827 356.479C485.449 355.116 486.203 354 486.504 354C486.805 354 486.353 355.35 485.5 357ZM441 357.559C441 358.773 437.246 359 417.122 359C395.553 359 393.117 358.831 391.921 357.25C390.794 355.761 390.806 355.687 391.998 356.75C393.035 357.674 399.496 358 416.807 358C437.551 358 440.146 357.823 439.618 356.448C439.277 355.558 439.445 355.157 440.011 355.507C440.555 355.843 441 356.766 441 357.559ZM569.683 357.188C569.364 357.985 569.127 357.748 569.079 356.583C569.036 355.529 569.272 354.939 569.604 355.271C569.936 355.603 569.972 356.466 569.683 357.188ZM103 357C102.175 357.533 101.05 357.969 100.5 357.969C99.95 357.969 100.175 357.533 101 357C101.825 356.467 102.95 356.031 103.5 356.031C104.05 356.031 103.825 356.467 103 357ZM227.07 359.262L246.002 359.567L226.764 359.533C208.273 359.501 207.518 359.422 207.32 357.5C207.165 355.986 207.239 355.92 207.627 357.229C208.084 358.774 210.15 358.99 227.07 359.262ZM302.361 359.039C301.735 359.665 294.195 359.933 282.427 359.749L263.5 359.453L282.75 359.227C296.621 359.063 302 358.674 302 357.833C302 357.192 302.308 356.974 302.683 357.35C303.059 357.726 302.914 358.486 302.361 359.039ZM551.545 359.262L570.5 359.569L551.083 359.535C534.691 359.505 531.601 359.266 531.256 358C530.96 356.913 531.088 356.838 531.719 357.727C532.341 358.603 538.011 359.042 551.545 359.262ZM98.729 358.604C98.397 358.936 97.534 358.972 96.813 358.683C96.015 358.364 96.252 358.127 97.417 358.079C98.471 358.036 99.061 358.272 98.729 358.604ZM66.729 359.604C66.397 359.936 65.534 359.972 64.813 359.683C64.015 359.364 64.252 359.127 65.417 359.079C66.471 359.036 67.061 359.272 66.729 359.604ZM94.729 359.604C94.397 359.936 93.534 359.972 92.813 359.683C92.015 359.364 92.252 359.127 93.417 359.079C94.471 359.036 95.061 359.272 94.729 359.604ZM72.269 360.656C71.592 360.93 70.242 360.947 69.269 360.693C68.296 360.439 68.85 360.215 70.5 360.195C72.15 360.175 72.946 360.382 72.269 360.656ZM90.269 360.656C89.592 360.93 88.242 360.947 87.269 360.693C86.296 360.439 86.85 360.215 88.5 360.195C90.15 360.175 90.946 360.382 90.269 360.656Z" fill="#3C92C2"/>
<path fill-rule="evenodd" clip-rule="evenodd" d="M0 300V600H300H600V300V0H300H0V300ZM84.042 240.53C58.07 245.229 36.769 268.04 31.589 296.703C30.814 300.991 30.139 303.109 30.09 301.41C29.939 296.218 33.779 282.915 37.714 275C42.705 264.958 57.468 249.957 67 245.242C74.412 241.575 82.883 239.12 88 239.156C90.13 239.171 88.581 239.709 84.042 240.53ZM112.831 241.507C117.195 242.885 121.205 244.573 121.742 245.257C122.727 246.511 119.773 278.56 118.561 279.772C118.241 280.092 116.746 279.201 115.24 277.791C110.796 273.634 106.561 272 100.228 272C91.943 272 85.816 274.401 79.596 280.086C72.569 286.509 69.649 293.064 69.595 302.536C69.463 325.874 91.924 335.304 111.75 320.233C113.537 318.874 115 318.06 115 318.425C115 319.932 111.955 347.747 111.472 350.644C111.024 353.336 110.187 354.098 105.655 355.937C98.203 358.962 90.105 360.994 86 360.871C83.231 360.788 83.648 360.581 88 359.88C95.734 358.635 108.988 353.905 109.934 352.052C110.37 351.199 111.252 344.875 111.895 338C112.537 331.125 113.321 324.208 113.637 322.629L114.212 319.758L109.669 322.883C95.587 332.573 77.983 329.199 71.145 315.5C69.169 311.543 68.635 308.912 68.582 302.885C68.522 296.087 68.89 294.534 72.007 288.422C78.053 276.57 88.759 270.422 102.045 271.172C107.799 271.497 109.658 272.079 113.412 274.725C117.286 277.455 117.967 277.657 118.382 276.194C118.761 274.862 120.942 253.893 121.406 247.125C121.519 245.48 111.034 241.328 103.655 240.095C99.786 239.449 99.298 239.205 101.698 239.117C103.457 239.053 108.467 240.128 112.831 241.507ZM379.596 240.765C380.903 241.641 392.219 261.114 391.714 261.619C391.522 261.811 388.766 257.476 385.59 251.984L379.814 242H357.407C345.083 242 335 242.193 335 242.428C335 242.663 341.809 254.604 350.131 268.963L365.262 295.07L388.132 294.785C400.71 294.628 411.001 294.837 411.001 295.25C411 295.663 400.538 295.985 387.75 295.967L364.5 295.934L348.818 268.761C340.193 253.816 333.358 241.231 333.627 240.794C334.245 239.795 378.108 239.768 379.596 240.765ZM234.158 299C240.661 330.625 245.986 357.297 245.991 358.272C245.999 359.915 244.611 360.024 226.751 359.772L207.502 359.5L206.078 351.75L204.654 344H186.52H168.385L164.123 352L159.86 360H140.43C129.637 360 121 359.601 121 359.103C121 358.61 131.406 336.898 144.124 310.853C156.842 284.809 169.655 258.429 172.595 252.231L177.943 240.962L200.138 241.231L222.334 241.5L234.158 299ZM318.992 243.25C318.979 246.796 303.098 358.032 302.457 359.07C302.135 359.59 293.537 360 282.941 360H264V357.681C264 356.405 267.596 329.968 271.992 298.931C276.387 267.894 279.987 242.162 279.992 241.75C279.996 241.338 288.775 241 299.5 241H319L318.992 243.25ZM445.75 241.747C438.738 241.919 427.262 241.919 420.25 241.747C413.238 241.575 418.975 241.435 433 241.435C447.025 241.435 452.762 241.575 445.75 241.747ZM546.382 242.75C547.339 245.994 570 357.151 570 358.604C570 359.816 566.957 360 550.75 359.772L531.5 359.5L530.076 351.75L528.652 344H510.437H492.223L488.061 352L483.899 360H464.449C452.62 360 445 359.622 445 359.035C445 358.504 453.835 339.942 464.633 317.785C475.432 295.628 488.232 269.288 493.079 259.25L501.892 241H523.879C543.955 241 545.91 241.152 546.382 242.75ZM150.5 299.647C135.1 331.312 122.347 357.63 122.159 358.132C121.959 358.668 129.58 358.932 140.628 358.772L159.437 358.5L163.566 351L167.694 343.5H186.595H205.496L206.921 351.25L208.346 359H226.673C236.753 359 245.015 358.663 245.034 358.25C245.053 357.837 239.766 331.515 233.284 299.757L221.5 242.013L200 242.044L178.5 242.076L150.5 299.647ZM280.641 245.25C279.563 251.27 265 355.612 265 357.314C265 358.834 266.817 359 283.5 359C293.675 359 302 358.813 302 358.583C302 358.354 305.6 332.723 310 301.624C314.4 270.526 318 244.388 318 243.541C318 242.209 315.506 242 299.611 242H281.223L280.641 245.25ZM474.5 299.56C459.1 331.222 446.347 357.559 446.159 358.086C445.947 358.682 452.918 358.942 464.563 358.772L483.308 358.5L487.436 351L491.565 343.5H510.532H529.5L530.854 351.25L532.208 359H550.604C564.675 359 568.991 358.706 568.961 357.75C568.939 357.063 563.626 330.85 557.155 299.5L545.39 242.5L523.945 242.246L502.5 241.992L474.5 299.56ZM197.933 294.25C199.131 302.087 200.198 309.85 200.305 311.5L200.5 314.5L190.75 314.786C185.387 314.944 181 314.724 181 314.298C181 312.681 194.398 280 195.06 280C195.443 280 196.736 286.413 197.933 294.25ZM520.023 281.25C520.036 281.938 521.114 289.475 522.419 298C523.724 306.525 524.587 313.837 524.337 314.25C523.624 315.426 505 315.162 505 313.976C505 313.413 508.017 305.538 511.704 296.476C517.749 281.621 519.955 277.583 520.023 281.25ZM188.487 297.193C185.194 305.472 182.35 312.64 182.167 313.122C181.983 313.605 185.941 314 190.962 314H200.091L199.535 310.75C199.229 308.962 198.111 301.94 197.05 295.143C195.988 288.347 194.975 282.642 194.798 282.464C194.62 282.287 191.781 288.915 188.487 297.193ZM512.487 297.193C509.194 305.472 506.35 312.64 506.167 313.122C505.983 313.605 509.91 314 514.892 314H523.95L523.446 311.25C523.169 309.738 522.074 302.706 521.012 295.624C519.95 288.542 518.945 282.611 518.778 282.445C518.611 282.278 515.781 288.915 512.487 297.193ZM425.36 331.344C433.962 345.557 441 357.603 441 358.111C441 358.659 431.121 358.926 416.758 358.768L392.516 358.5L386.758 349.03C383.591 343.821 381.005 339.096 381.012 338.53C381.018 337.963 383.769 342.113 387.126 347.75L393.228 358H416.649C439.517 358 440.046 357.954 439.032 356.061C433.472 345.672 408.09 305.226 407.477 305.779C407.038 306.176 407.027 305.898 407.453 305.163C407.878 304.427 408.562 304.202 408.973 304.663C409.384 305.123 416.758 317.13 425.36 331.344ZM32.097 322.821C35.89 341.544 50.532 355.959 69.482 359.627C76.346 360.956 76.379 360.977 71 360.582C50.876 359.106 32.2 339.715 30.471 318.5C30.045 313.281 30.305 313.971 32.097 322.821Z" fill="#0070AF"/>
<path fill-rule="evenodd" clip-rule="evenodd" d="M0 300V600H300H600V300V0H300H0V300ZM112.831 241.507C117.195 242.885 121.205 244.573 121.742 245.257C122.727 246.511 119.773 278.56 118.561 279.772C118.241 280.092 116.746 279.201 115.24 277.791C110.796 273.634 106.561 272 100.228 272C91.943 272 85.816 274.401 79.596 280.086C72.569 286.509 69.649 293.064 69.595 302.536C69.463 325.874 91.924 335.304 111.75 320.233C113.537 318.874 115 318.06 115 318.425C115 319.936 111.954 347.751 111.471 350.655C111.007 353.44 110.217 354.099 104.723 356.288C94.725 360.271 88.398 361.276 76.438 360.783C68.441 360.454 64.01 359.752 59.958 358.172C48.51 353.71 36.737 341.172 32.565 329C29.571 320.266 29.238 301.478 31.889 290.863C35.356 276.976 40.046 268.895 50.971 257.979C65.253 243.708 75.703 239.188 94.698 239.066C102.934 239.013 106.424 239.482 112.831 241.507ZM379.596 240.765C380.707 241.51 391.05 259.039 392.268 262.241C392.633 263.199 396.996 270.988 401.965 279.549C406.934 288.111 411 295.315 411 295.558C411 295.801 400.538 295.985 387.75 295.967L364.5 295.934L348.818 268.761C340.193 253.816 333.358 241.231 333.627 240.794C334.245 239.795 378.108 239.768 379.596 240.765ZM234.158 299C240.661 330.625 245.986 357.297 245.991 358.272C245.999 359.915 244.611 360.024 226.751 359.772L207.502 359.5L206.078 351.75L204.654 344H186.52H168.385L164.123 352L159.86 360H140.43C129.637 360 121 359.601 121 359.103C121 358.61 131.406 336.898 144.124 310.853C156.842 284.809 169.655 258.429 172.595 252.231L177.943 240.962L200.138 241.231L222.334 241.5L234.158 299ZM318.992 243.25C318.979 246.796 303.098 358.032 302.457 359.07C302.135 359.59 293.537 360 282.941 360H264V357.681C264 356.405 267.596 329.968 271.992 298.931C276.387 267.894 279.987 242.162 279.992 241.75C279.996 241.338 288.775 241 299.5 241H319L318.992 243.25ZM445.75 241.747C438.738 241.919 427.262 241.919 420.25 241.747C413.238 241.575 418.975 241.435 433 241.435C447.025 241.435 452.762 241.575 445.75 241.747ZM546.382 242.75C547.339 245.994 570 357.151 570 358.604C570 359.816 566.957 360 550.75 359.772L531.5 359.5L530.076 351.75L528.652 344H510.437H492.223L488.061 352L483.899 360H464.449C452.62 360 445 359.622 445 359.035C445 358.504 453.835 339.942 464.633 317.785C475.432 295.628 488.232 269.288 493.079 259.25L501.892 241H523.879C543.955 241 545.91 241.152 546.382 242.75ZM188.487 297.193C185.194 305.472 182.35 312.64 182.167 313.122C181.983 313.605 185.941 314 190.962 314H200.091L199.535 310.75C199.229 308.962 198.111 301.94 197.05 295.143C195.988 288.347 194.975 282.642 194.798 282.464C194.62 282.287 191.781 288.915 188.487 297.193ZM512.487 297.193C509.194 305.472 506.35 312.64 506.167 313.122C505.983 313.605 509.91 314 514.892 314H523.95L523.446 311.25C523.169 309.738 522.074 302.706 521.012 295.624C519.95 288.542 518.945 282.611 518.778 282.445C518.611 282.278 515.781 288.915 512.487 297.193ZM425.36 331.344C433.962 345.557 441 357.603 441 358.111C441 358.659 431.118 358.926 416.75 358.768L392.5 358.5L386.676 348.874L380.851 339.248L394.667 321.666C402.266 311.996 408.762 304.402 409.102 304.792C409.442 305.181 416.758 317.13 425.36 331.344Z" fill="#F8AC73"/>
<path fill-rule="evenodd" clip-rule="evenodd" d="M0 300V600H300H600V300V0H300H0V300ZM112.831 241.507C117.195 242.885 121.205 244.573 121.742 245.257C122.727 246.511 119.773 278.56 118.561 279.772C118.241 280.092 116.746 279.201 115.24 277.791C110.796 273.634 106.561 272 100.228 272C91.943 272 85.816 274.401 79.596 280.086C72.569 286.509 69.649 293.064 69.595 302.536C69.463 325.874 91.924 335.304 111.75 320.233C113.537 318.874 115 318.06 115 318.425C115 319.936 111.954 347.751 111.471 350.655C111.007 353.44 110.217 354.099 104.723 356.288C94.725 360.271 88.398 361.276 76.438 360.783C68.441 360.454 64.01 359.752 59.958 358.172C48.51 353.71 36.737 341.172 32.565 329C29.571 320.266 29.238 301.478 31.889 290.863C35.356 276.976 40.046 268.895 50.971 257.979C65.253 243.708 75.703 239.188 94.698 239.066C102.934 239.013 106.424 239.482 112.831 241.507ZM379.585 240.765C380.182 241.169 382.6 244.875 384.957 249C392.187 261.651 391.907 261.309 393.817 259.834C395.375 258.631 395.374 258.684 393.805 260.535C392.178 262.455 392.488 263.187 401.555 278.833C406.75 287.797 411 295.327 411 295.566C411 295.805 400.538 295.985 387.75 295.967L364.5 295.934L348.818 268.761C340.193 253.816 333.358 241.231 333.627 240.794C334.245 239.795 378.112 239.768 379.585 240.765ZM234.158 299C240.661 330.625 245.986 357.297 245.991 358.272C245.999 359.915 244.611 360.024 226.751 359.772L207.502 359.5L206.078 351.75L204.654 344H186.52H168.385L164.123 352L159.86 360H140.43C129.637 360 121 359.601 121 359.103C121 358.61 131.406 336.898 144.124 310.853C156.842 284.809 169.655 258.429 172.595 252.231L177.943 240.962L200.138 241.231L222.334 241.5L234.158 299ZM318.992 243.25C318.979 246.796 303.098 358.032 302.457 359.07C302.135 359.59 293.537 360 282.941 360H264V357.681C264 356.405 267.596 329.968 271.992 298.931C276.387 267.894 279.987 242.162 279.992 241.75C279.996 241.338 288.775 241 299.5 241H319L318.992 243.25ZM457.985 241.75C457.977 242.162 456.359 244.3 454.39 246.5L450.811 250.5L453.989 246.25L457.168 242H432.821H408.474L402.559 249.551C399.306 253.704 396.162 257.391 395.572 257.744C394.983 258.098 396.1 256.388 398.057 253.944C400.013 251.5 403.126 247.588 404.974 245.25L408.335 241H433.167C446.825 241 457.993 241.338 457.985 241.75ZM546.382 242.75C547.339 245.994 570 357.151 570 358.604C570 359.816 566.957 360 550.75 359.772L531.5 359.5L530.076 351.75L528.652 344H510.437H492.223L488.061 352L483.899 360H464.449C452.62 360 445 359.622 445 359.035C445 358.504 453.835 339.942 464.633 317.785C475.432 295.628 488.232 269.288 493.079 259.25L501.892 241H523.879C543.955 241 545.91 241.152 546.382 242.75ZM451 251.345C451 251.535 449.988 252.547 448.75 253.595L446.5 255.5L448.405 253.25C450.195 251.136 451 250.545 451 251.345ZM447 256.345C447 256.535 445.988 257.547 444.75 258.595L442.5 260.5L444.405 258.25C446.195 256.136 447 255.545 447 256.345ZM443 261.345C443 261.535 441.988 262.547 440.75 263.595L438.5 265.5L440.405 263.25C442.195 261.136 443 260.545 443 261.345ZM439 266.345C439 266.535 437.988 267.547 436.75 268.595L434.5 270.5L436.405 268.25C438.195 266.136 439 265.545 439 266.345ZM435 271.345C435 271.535 433.988 272.547 432.75 273.595L430.5 275.5L432.405 273.25C434.195 271.136 435 270.545 435 271.345ZM431 276.345C431 276.535 429.988 277.547 428.75 278.595L426.5 280.5L428.405 278.25C430.195 276.136 431 275.545 431 276.345ZM427 281.345C427 281.535 425.988 282.547 424.75 283.595L422.5 285.5L424.405 283.25C426.195 281.136 427 280.545 427 281.345ZM188.487 297.193C185.194 305.472 182.35 312.64 182.167 313.122C181.983 313.605 185.941 314 190.962 314H200.091L199.535 310.75C199.229 308.962 198.111 301.94 197.05 295.143C195.988 288.347 194.975 282.642 194.798 282.464C194.62 282.287 191.781 288.915 188.487 297.193ZM512.487 297.193C509.194 305.472 506.35 312.64 506.167 313.122C505.983 313.605 509.91 314 514.892 314H523.95L523.446 311.25C523.169 309.738 522.074 302.706 521.012 295.624C519.95 288.542 518.945 282.611 518.778 282.445C518.611 282.278 515.781 288.915 512.487 297.193ZM419.323 290.957C416.97 294.009 414.731 295.907 413.5 295.894C411.572 295.874 411.576 295.843 413.595 295.026C414.747 294.56 417.148 292.339 418.929 290.09C420.711 287.84 422.388 286 422.657 286C422.926 286 421.426 288.231 419.323 290.957ZM359 304.378C359 304.585 358.212 305.373 357.25 306.128C355.664 307.371 355.629 307.336 356.872 305.75C358.179 304.084 359 303.555 359 304.378ZM425.36 331.344C433.962 345.557 441 357.603 441 358.111C441 358.659 431.13 358.926 416.781 358.768L392.561 358.5L387.301 350C384.408 345.325 381.88 341.05 381.683 340.5C381.475 339.92 380.522 340.127 379.413 340.994C378.361 341.816 379.303 340.466 381.506 337.994C383.709 335.522 390.674 326.875 396.984 318.778C403.294 310.681 408.741 304.381 409.088 304.778C409.436 305.175 416.758 317.13 425.36 331.344ZM356 308.345C356 308.535 354.988 309.547 353.75 310.595L351.5 312.5L353.405 310.25C355.195 308.136 356 307.545 356 308.345ZM349 317C347.258 319.2 345.607 321 345.332 321C345.057 321 346.258 319.2 348 317C349.742 314.8 351.393 313 351.668 313C351.943 313 350.742 314.8 349 317ZM345 322.345C345 322.535 343.988 323.547 342.75 324.595L340.5 326.5L342.405 324.25C344.195 322.136 345 321.545 345 322.345ZM336.37 333.063C333.75 336.397 331.133 339.409 330.553 339.756C329.974 340.103 331.267 338.163 333.426 335.444C338.844 328.62 340.244 327 340.721 327C340.948 327 338.989 329.728 336.37 333.063ZM330 341.345C330 341.535 328.988 342.547 327.75 343.595L325.5 345.5L327.405 343.25C329.195 341.136 330 340.545 330 341.345ZM375 347C373.258 349.2 371.607 351 371.332 351C371.057 351 372.258 349.2 374 347C375.742 344.8 377.393 343 377.668 343C377.943 343 376.742 344.8 375 347ZM323 350C321.258 352.2 319.607 354 319.332 354C319.057 354 320.258 352.2 322 350C323.742 347.8 325.393 346 325.668 346C325.943 346 324.742 347.8 323 350ZM371 352.345C371 352.535 369.988 353.547 368.75 354.595L366.5 356.5L368.405 354.25C370.195 352.136 371 351.545 371 352.345ZM317.972 356.534C316.832 357.907 319.328 358.038 341.755 357.784C355.536 357.628 366.602 357.837 366.347 358.25C365.719 359.263 316 359.213 316 358.2C316 357.366 318.087 355 318.822 355C319.055 355 318.672 355.69 317.972 356.534Z" fill="#F5822B"/>
<path fill-rule="evenodd" clip-rule="evenodd" d="M0 300V600H300H600V300V0H300H0V300ZM112.831 241.507C117.195 242.885 121.205 244.573 121.742 245.257C122.727 246.511 119.773 278.56 118.561 279.772C118.241 280.092 116.746 279.201 115.24 277.791C110.796 273.634 106.561 272 100.228 272C91.943 272 85.816 274.401 79.596 280.086C72.569 286.509 69.649 293.064 69.595 302.536C69.463 325.874 91.924 335.304 111.75 320.233C113.537 318.874 115 318.06 115 318.425C115 319.936 111.954 347.751 111.471 350.655C111.007 353.44 110.217 354.099 104.723 356.288C94.725 360.271 88.398 361.276 76.438 360.783C68.441 360.454 64.01 359.752 59.958 358.172C48.51 353.71 36.737 341.172 32.565 329C29.571 320.266 29.238 301.478 31.889 290.863C35.356 276.976 40.046 268.895 50.971 257.979C65.253 243.708 75.703 239.188 94.698 239.066C102.934 239.013 106.424 239.482 112.831 241.507ZM379.617 240.765C380.231 241.169 383.099 245.67 385.989 250.766C388.879 255.863 391.573 260.236 391.975 260.484C392.377 260.733 396.202 256.45 400.476 250.968L408.245 241H433.206C447.844 241 458.029 241.378 457.833 241.913C457.65 242.416 448.05 254.743 436.5 269.307L415.5 295.787L390 295.879L364.5 295.971L348.818 268.779C340.193 253.824 333.358 241.231 333.627 240.794C334.245 239.795 378.1 239.768 379.617 240.765ZM234.158 299C240.661 330.625 245.986 357.297 245.991 358.272C245.999 359.915 244.611 360.024 226.751 359.772L207.502 359.5L206.078 351.75L204.654 344H186.52H168.385L164.123 352L159.86 360H140.43C129.637 360 121 359.601 121 359.103C121 358.61 131.406 336.898 144.124 310.853C156.842 284.809 169.655 258.429 172.595 252.231L177.943 240.962L200.138 241.231L222.334 241.5L234.158 299ZM318.992 243.25C318.979 246.796 303.098 358.032 302.457 359.07C302.135 359.59 293.537 360 282.941 360H264V357.681C264 356.405 267.596 329.968 271.992 298.931C276.387 267.894 279.987 242.162 279.992 241.75C279.996 241.338 288.775 241 299.5 241H319L318.992 243.25ZM546.382 242.75C547.339 245.994 570 357.151 570 358.604C570 359.816 566.957 360 550.75 359.772L531.5 359.5L530.076 351.75L528.652 344H510.437H492.223L488.061 352L483.899 360H464.449C452.62 360 445 359.622 445 359.035C445 358.504 453.835 339.942 464.633 317.785C475.432 295.628 488.232 269.288 493.079 259.25L501.892 241H523.879C543.955 241 545.91 241.152 546.382 242.75ZM398 273C398.589 274.1 399.295 275 399.57 275C399.845 275 399.589 274.1 399 273C398.411 271.9 397.705 271 397.43 271C397.155 271 397.411 271.9 398 273ZM188.487 297.193C185.194 305.472 182.35 312.64 182.167 313.122C181.983 313.605 185.941 314 190.962 314H200.091L199.535 310.75C199.229 308.962 198.111 301.94 197.05 295.143C195.988 288.347 194.975 282.642 194.798 282.464C194.62 282.287 191.781 288.915 188.487 297.193ZM512.487 297.193C509.194 305.472 506.35 312.64 506.167 313.122C505.983 313.605 509.91 314 514.892 314H523.95L523.446 311.25C523.169 309.738 522.074 302.706 521.012 295.624C519.95 288.542 518.945 282.611 518.778 282.445C518.611 282.278 515.781 288.915 512.487 297.193ZM409 292C409.589 293.1 410.295 294 410.57 294C410.845 294 410.589 293.1 410 292C409.411 290.9 408.705 290 408.43 290C408.155 290 408.411 290.9 409 292ZM424.619 330.181C433.354 344.58 440.647 356.964 440.827 357.699C441.094 358.793 436.729 358.987 416.827 358.768L392.5 358.5L387 349.284C383.975 344.215 381.236 340.053 380.914 340.034C380.592 340.015 377.007 344.275 372.948 349.5L365.567 359H340.7C325.265 359 315.96 358.636 316.167 358.041C316.35 357.513 325.902 345.138 337.394 330.541L358.287 304H383.513H408.739L424.619 330.181ZM404.872 307.75C403.629 309.336 403.664 309.371 405.25 308.128C406.916 306.821 407.445 306 406.622 306C406.415 306 405.627 306.788 404.872 307.75ZM400.872 312.75C399.629 314.336 399.664 314.371 401.25 313.128C402.212 312.373 403 311.585 403 311.378C403 310.555 402.179 311.084 400.872 312.75ZM397.405 317.25L395.5 319.5L397.75 317.595C399.864 315.805 400.455 315 399.655 315C399.465 315 398.453 316.012 397.405 317.25ZM393.872 321.75C392.629 323.336 392.664 323.371 394.25 322.128C395.212 321.373 396 320.585 396 320.378C396 319.555 395.179 320.084 393.872 321.75ZM389.872 326.75C388.629 328.336 388.664 328.371 390.25 327.128C391.212 326.373 392 325.585 392 325.378C392 324.555 391.179 325.084 389.872 326.75ZM386.405 331.25L384.5 333.5L386.75 331.595C388.864 329.805 389.455 329 388.655 329C388.465 329 387.453 330.012 386.405 331.25ZM382.872 335.75C381.629 337.336 381.664 337.371 383.25 336.128C384.916 334.821 385.445 334 384.622 334C384.415 334 383.627 334.788 382.872 335.75Z" fill="#9C7B5A"/>
<path fill-rule="evenodd" clip-rule="evenodd" d="M0 300V600H300H600V300V0H300H0V300ZM112.831 241.507C117.195 242.885 121.205 244.573 121.742 245.257C122.727 246.511 119.773 278.56 118.561 279.772C118.241 280.092 116.746 279.201 115.24 277.791C110.796 273.634 106.561 272 100.228 272C91.943 272 85.816 274.401 79.596 280.086C72.569 286.509 69.649 293.064 69.595 302.536C69.463 325.874 91.924 335.304 111.75 320.233C113.537 318.874 115 318.06 115 318.425C115 319.936 111.954 347.751 111.471 350.655C111.007 353.44 110.217 354.099 104.723 356.288C94.725 360.271 88.398 361.276 76.438 360.783C68.441 360.454 64.01 359.752 59.958 358.172C48.51 353.71 36.737 341.172 32.565 329C29.571 320.266 29.238 301.478 31.889 290.863C35.356 276.976 40.046 268.895 50.971 257.979C65.253 243.708 75.703 239.188 94.698 239.066C102.934 239.013 106.424 239.482 112.831 241.507ZM379.617 240.765C380.231 241.169 383.099 245.67 385.989 250.766C388.879 255.863 391.573 260.236 391.975 260.484C392.377 260.733 396.202 256.45 400.476 250.968L408.245 241H433.206C447.844 241 458.029 241.378 457.833 241.913C457.65 242.416 448.05 254.761 436.5 269.348L415.5 295.868L390 295.901L364.5 295.934L348.818 268.761C340.193 253.816 333.358 241.231 333.627 240.794C334.245 239.795 378.1 239.768 379.617 240.765ZM234.158 299C240.661 330.625 245.986 357.297 245.991 358.272C245.999 359.915 244.611 360.024 226.751 359.772L207.502 359.5L206.078 351.75L204.654 344H186.52H168.385L164.123 352L159.86 360H140.43C129.637 360 121 359.601 121 359.103C121 358.61 131.406 336.898 144.124 310.853C156.842 284.809 169.655 258.429 172.595 252.231L177.943 240.962L200.138 241.231L222.334 241.5L234.158 299ZM318.992 243.25C318.979 246.796 303.098 358.032 302.457 359.07C302.135 359.59 293.537 360 282.941 360H264V357.681C264 356.405 267.596 329.968 271.992 298.931C276.387 267.894 279.987 242.162 279.992 241.75C279.996 241.338 288.775 241 299.5 241H319L318.992 243.25ZM546.382 242.75C547.339 245.994 570 357.151 570 358.604C570 359.816 566.957 360 550.75 359.772L531.5 359.5L530.076 351.75L528.652 344H510.437H492.223L488.061 352L483.899 360H464.449C452.62 360 445 359.622 445 359.035C445 358.504 453.835 339.942 464.633 317.785C475.432 295.628 488.232 269.288 493.079 259.25L501.892 241H523.879C543.955 241 545.91 241.152 546.382 242.75ZM188.487 297.193C185.194 305.472 182.35 312.64 182.167 313.122C181.983 313.605 185.941 314 190.962 314H200.091L199.535 310.75C199.229 308.962 198.111 301.94 197.05 295.143C195.988 288.347 194.975 282.642 194.798 282.464C194.62 282.287 191.781 288.915 188.487 297.193ZM512.487 297.193C509.194 305.472 506.35 312.64 506.167 313.122C505.983 313.605 509.91 314 514.892 314H523.95L523.446 311.25C523.169 309.738 522.074 302.706 521.012 295.624C519.95 288.542 518.945 282.611 518.778 282.445C518.611 282.278 515.781 288.915 512.487 297.193ZM424.619 330.181C433.354 344.58 440.647 356.964 440.827 357.699C441.094 358.793 436.729 358.987 416.827 358.768L392.5 358.5L387 349.284C383.975 344.215 381.236 340.053 380.914 340.034C380.592 340.015 377.007 344.275 372.948 349.5L365.567 359H340.7C325.265 359 315.96 358.636 316.167 358.041C316.35 357.513 325.902 345.138 337.394 330.541L358.287 304H383.513H408.739L424.619 330.181Z" fill="white"/>
</svg>
