<?xml version="1.0" standalone="no"?>
<!DOCTYPE svg PUBLIC "-//W3C//DTD SVG 20010904//EN"
 "http://www.w3.org/TR/2001/REC-SVG-20010904/DTD/svg10.dtd">
<svg version="1.0" xmlns="http://www.w3.org/2000/svg"
 width="2000.000000pt" height="2000.000000pt" viewBox="0 0 1024.000000 1024.000000"
 preserveAspectRatio="xMidYMid meet">

<g transform="translate(0.000000,1024.000000) scale(0.100000,-0.100000)"
fill="#ffffff" stroke="none">
<path d="M1574 8710 c-12 -4 -31 -21 -43 -36 l-21 -27 0 -3547 0 -3547 22 -28
c46 -59 -219 -55 3585 -55 3310 0 3500 1 3533 18 20 10 42 32 52 52 17 33 18
224 18 3553 0 3872 5 3566 -62 3607 -33 20 -40 20 -3548 19 -1933 0 -3525 -4
-3536 -9z m6921 -3605 l0 -3400 -3382 -3 -3383 -2 0 3398 c0 1869 3 3402 7
3405 3 4 1525 6 3382 5 l3376 -3 0 -3400z"/>
<path d="M5064 8082 c-29 -16 -263 -183 -599 -428 -88 -65 -326 -236 -530
-382 -203 -146 -487 -349 -629 -451 -142 -102 -426 -305 -630 -452 -250 -178
-377 -276 -389 -297 -24 -41 -16 -95 18 -126 13 -12 70 -55 127 -96 247 -177
767 -543 1048 -738 91 -63 169 -118 173 -122 10 -9 -11 -25 -378 -285 -154
-109 -383 -273 -510 -364 -126 -90 -280 -200 -342 -243 -62 -43 -119 -88 -128
-100 -8 -13 -15 -41 -15 -64 0 -54 15 -68 277 -249 111 -77 202 -143 203 -146
0 -3 -102 -77 -227 -164 -126 -87 -247 -174 -270 -192 l-43 -34 0 -482 c0
-529 -2 -510 60 -542 57 -29 104 -14 225 75 50 37 194 137 705 490 146 101
292 203 325 227 32 24 62 43 66 43 4 0 152 -102 330 -227 1195 -836 1087 -763
1131 -763 49 0 100 35 1133 770 582 414 830 590 990 702 83 57 236 165 340
238 105 73 251 176 325 228 74 51 143 103 153 114 9 11 17 36 17 55 0 44 -28
72 -180 178 -63 43 -230 161 -370 260 -140 99 -371 262 -512 360 -142 99 -258
182 -258 185 0 5 296 216 650 464 102 71 253 177 335 236 83 58 180 127 217
153 80 57 98 80 98 127 0 48 -5 52 -300 259 -279 195 -285 200 -279 204 2 1
31 21 64 43 164 111 503 350 528 372 l27 26 0 472 c0 283 -4 483 -10 498 -14
37 -67 68 -108 62 -18 -3 -69 -31 -114 -63 -45 -32 -92 -65 -104 -73 -13 -8
-146 -103 -296 -211 -150 -108 -333 -237 -405 -288 -73 -51 -137 -100 -143
-111 -15 -29 -12 -83 7 -110 27 -39 45 -49 90 -50 36 0 57 10 139 66 168 115
566 395 641 451 40 30 77 52 83 48 6 -4 10 -106 10 -285 0 -235 -2 -281 -15
-294 -8 -8 -84 -62 -168 -121 -83 -58 -210 -146 -280 -195 -71 -50 -134 -90
-140 -90 -7 0 -62 35 -122 77 -61 42 -195 135 -300 208 -305 211 -1392 972
-1553 1087 -69 50 -128 80 -152 78 -3 -1 -19 -9 -36 -18z m136 -302 c36 -26
173 -123 305 -215 358 -252 784 -551 925 -650 262 -185 687 -484 1005 -707
132 -93 241 -173 243 -177 2 -5 -4 -11 -12 -14 -8 -3 -75 -48 -148 -98 -239
-167 -1108 -784 -1508 -1071 -1137 -817 -1717 -1227 -1729 -1223 -14 5 -242
163 -382 263 -32 23 -59 46 -59 50 0 8 47 43 400 292 96 68 229 163 295 210
139 101 603 429 861 610 343 241 1309 932 1337 956 35 32 38 91 5 128 -13 13
-104 82 -203 152 -99 70 -228 161 -287 203 -59 42 -229 162 -379 266 -151 105
-375 261 -498 348 -252 176 -264 180 -337 131 -101 -69 -404 -282 -594 -419
-47 -34 -164 -117 -260 -185 -96 -68 -213 -151 -260 -185 -47 -34 -197 -143
-335 -242 -137 -99 -333 -239 -434 -312 l-183 -132 -27 17 c-78 50 -351 246
-351 253 0 4 35 31 78 61 87 60 688 487 922 655 246 177 349 250 605 432 132
94 304 218 382 275 79 56 209 150 290 208 82 58 170 122 197 142 28 20 55 34
60 31 6 -3 40 -27 76 -53z m-53 -793 c25 -21 101 -76 525 -373 70 -49 127 -93
127 -99 0 -5 -39 -37 -87 -71 -117 -81 -352 -249 -937 -669 -269 -194 -584
-420 -700 -502 l-209 -151 -33 22 c-48 32 -562 395 -613 434 -25 18 -45 37
-45 41 0 9 275 207 1225 884 316 226 604 432 640 458 36 27 68 49 72 49 3 0
19 -11 35 -23z m1033 -727 c111 -78 240 -169 253 -180 4 -4 -61 -56 -145 -115
-84 -60 -182 -129 -218 -155 -234 -168 -1115 -795 -1310 -932 -129 -90 -365
-258 -525 -373 -159 -115 -381 -273 -493 -353 -111 -79 -209 -153 -217 -165
-19 -28 -19 -77 0 -104 16 -23 121 -100 435 -318 175 -121 571 -401 924 -652
184 -131 194 -134 277 -76 30 20 374 260 764 533 391 273 774 541 853 595 79
54 154 111 168 127 30 37 31 82 2 111 -13 12 -179 132 -370 266 -192 135 -348
248 -348 252 0 14 261 191 274 186 7 -3 120 -81 252 -173 598 -420 920 -644
929 -648 19 -7 -29 -43 -375 -283 -328 -228 -604 -421 -735 -516 -33 -24 -168
-120 -300 -214 -357 -252 -1103 -781 -1157 -820 -28 -20 -53 -31 -60 -27 -7 4
-78 53 -158 109 -281 197 -626 439 -710 497 -47 32 -166 115 -265 185 -238
166 -859 595 -960 663 -158 105 -365 253 -365 261 0 4 44 38 98 75 122 85
1044 739 1372 973 135 96 281 200 325 231 44 31 249 177 455 325 206 148 553
397 770 552 l394 282 31 -23 c16 -12 77 -55 135 -96z m161 -1903 c159 -111
289 -204 289 -207 0 -3 -87 -66 -193 -140 -105 -74 -354 -250 -552 -390 -198
-141 -458 -326 -579 -412 l-218 -155 -192 135 c-105 75 -239 170 -298 211 -60
41 -108 77 -108 80 1 7 32 30 410 295 253 177 765 539 1030 727 52 37 101 66
108 63 8 -2 144 -95 303 -207z m-3193 -1079 c98 -67 194 -133 214 -147 21 -14
37 -28 37 -31 0 -3 -104 -78 -232 -167 -128 -89 -339 -236 -469 -327 -130 -91
-241 -167 -247 -168 -8 -2 -11 88 -12 297 l-1 300 179 124 c296 205 348 241
351 241 2 0 83 -55 180 -122z"/>
</g>
</svg>
