<?xml version="1.0" standalone="no"?>
<!DOCTYPE svg PUBLIC "-//W3C//DTD SVG 20010904//EN"
 "http://www.w3.org/TR/2001/REC-SVG-20010904/DTD/svg10.dtd">
<svg version="1.0" xmlns="http://www.w3.org/2000/svg"
 width="1000.000000pt" height="1000.000000pt" viewBox="0 0 1024.000000 1024.000000"
 preserveAspectRatio="xMidYMid meet">

<g transform="translate(0.000000,1024.000000) scale(0.100000,-0.100000)"
fill="#ffffff" stroke="none">
<path d="M1889 6309 c-400 -42 -762 -298 -949 -669 -92 -183 -127 -347 -117
-547 12 -253 105 -448 283 -594 212 -175 542 -225 864 -132 138 40 198 70 209
107 13 42 101 497 101 524 0 11 -12 30 -26 41 -29 23 -46 19 -115 -27 -94 -64
-220 -102 -336 -102 -143 0 -245 55 -301 164 -21 41 -27 69 -30 144 -7 152 35
261 143 366 111 108 231 152 389 144 101 -6 166 -27 257 -83 66 -40 94 -44
110 -13 6 12 29 114 50 227 20 113 43 230 49 259 16 74 8 96 -42 120 -66 30
-184 60 -283 72 -101 11 -146 11 -256 -1z m370 -140 l93 -23 -5 -47 c-3 -26
-18 -111 -33 -189 -22 -119 -29 -141 -43 -137 -9 3 -43 17 -77 31 -222 93
-486 37 -665 -143 -132 -132 -185 -271 -176 -458 4 -87 9 -112 35 -168 77
-163 259 -258 460 -241 78 7 183 36 245 68 22 11 41 17 44 15 5 -6 -43 -277
-58 -324 -7 -23 -20 -35 -50 -47 -144 -58 -351 -87 -484 -68 -179 26 -293 81
-411 198 -131 129 -194 298 -194 519 0 255 82 458 275 682 153 177 433 327
665 357 87 11 287 -2 379 -25z"/>
<path d="M7077 6280 c-13 -5 -59 -54 -251 -268 -65 -73 -120 -131 -122 -129
-2 2 -40 84 -85 183 -44 98 -88 187 -96 197 -15 16 -43 17 -381 15 -333 -3
-366 -5 -376 -20 -8 -14 0 -38 41 -120 29 -57 127 -254 218 -438 91 -184 174
-341 183 -347 23 -18 717 -18 748 0 40 22 789 815 806 852 9 19 7 30 -6 50 -9
14 -22 25 -29 25 -280 4 -641 4 -650 0z m-581 -230 c29 -63 102 -224 163 -357
l109 -243 -244 0 -243 0 -176 350 c-96 192 -175 354 -175 360 0 7 83 9 257 8
l256 -3 53 -115z m1072 111 c-3 -7 -436 -465 -611 -646 -40 -41 -60 -56 -64
-46 -3 7 -34 72 -69 143 -35 71 -64 134 -64 141 0 7 52 68 115 137 63 69 146
160 183 202 l67 77 223 0 c123 1 222 -3 220 -8z"/>
<path d="M3347 6263 c-18 -21 -132 -231 -587 -1078 -100 -187 -194 -360 -208
-385 -13 -25 -58 -108 -100 -185 -41 -77 -78 -144 -83 -149 -18 -20 -10 -74
13 -90 33 -23 543 -24 575 -1 12 8 49 68 83 132 34 65 67 121 73 125 7 4 135
7 284 6 236 -2 274 -4 277 -18 3 -8 10 -49 16 -90 19 -121 27 -146 55 -158 18
-8 112 -12 295 -12 257 0 271 1 290 20 11 11 20 26 20 33 0 7 -15 116 -34 242
-44 291 -89 605 -167 1155 -43 311 -65 440 -77 453 -14 16 -44 17 -362 17
-318 0 -348 -1 -363 -17z m638 -115 c3 -13 57 -387 120 -833 64 -445 116 -817
118 -825 2 -13 -27 -15 -200 -18 -185 -2 -202 -1 -207 15 -3 10 -13 63 -22
118 -9 55 -22 110 -30 123 l-14 22 -355 0 -354 0 -19 -27 c-11 -16 -45 -79
-76 -140 l-56 -113 -190 0 -190 0 26 53 c42 82 673 1255 808 1500 l81 147 277
0 278 0 5 -22z"/>
<path d="M3597 5748 c-14 -11 -142 -238 -315 -559 -94 -173 -87 -179 213 -179
252 0 265 3 265 68 -1 46 -85 620 -95 645 -6 15 -34 37 -47 37 -2 0 -12 -6
-21 -12z m-7 -261 c0 -2 11 -80 25 -173 14 -93 25 -175 25 -181 0 -10 -33 -13
-130 -13 -71 0 -130 2 -130 6 0 13 194 364 202 364 4 0 8 -1 8 -3z"/>
<path d="M4917 6263 c-10 -12 -53 -210 -122 -553 -58 -294 -126 -634 -151
-755 -111 -552 -112 -560 -64 -585 25 -13 535 -14 560 0 11 6 24 27 29 48 6
20 90 438 188 929 174 876 177 892 159 912 -18 20 -29 21 -301 21 -256 0 -283
-2 -298 -17z m483 -106 c0 -15 -134 -688 -308 -1547 l-27 -135 -197 -3 c-134
-2 -198 1 -198 8 0 11 18 105 156 805 129 654 172 864 179 875 4 6 84 10 201
10 152 0 194 -3 194 -13z"/>
<path d="M8383 6247 c-21 -33 -221 -404 -600 -1117 -302 -568 -363 -687 -363
-710 0 -11 9 -29 20 -40 19 -19 33 -20 276 -20 158 0 263 4 275 10 10 6 44 61
75 123 31 62 63 120 72 130 15 17 36 18 290 16 150 -2 276 -6 281 -9 4 -3 15
-43 24 -90 27 -135 35 -156 63 -168 17 -8 107 -12 277 -12 295 0 297 1 297 78
0 26 -11 108 -24 182 -69 390 -118 670 -177 1020 -91 539 -101 596 -115 618
l-14 22 -318 0 -317 0 -22 -33z m581 -94 c5 -19 33 -179 116 -668 58 -345 121
-714 150 -878 11 -66 20 -123 20 -128 0 -12 -377 -12 -385 0 -3 6 -14 60 -25
121 -11 61 -26 120 -33 130 -11 19 -25 20 -369 20 l-357 0 -16 -22 c-9 -13
-44 -75 -78 -138 l-62 -115 -177 -3 c-98 -1 -178 0 -178 4 0 7 38 80 248 474
116 218 508 949 609 1138 l45 82 243 0 c223 0 244 -1 249 -17z"/>
<path d="M8597 5759 c-9 -5 -25 -27 -35 -47 -23 -46 -171 -324 -263 -493 -38
-70 -69 -136 -69 -148 0 -11 9 -30 20 -41 19 -19 33 -20 253 -20 214 0 235 2
250 18 23 26 22 56 -17 307 -19 121 -40 260 -47 308 -7 48 -17 94 -23 101 -16
20 -48 27 -69 15z m28 -452 c15 -98 25 -180 23 -183 -3 -2 -64 -3 -136 -2
l-130 3 100 194 c68 129 103 189 109 180 4 -8 20 -94 34 -192z"/>
<path d="M5701 4875 c-411 -414 -423 -427 -417 -458 4 -17 11 -36 17 -42 6 -6
141 -11 372 -13 l362 -3 189 191 c103 105 190 190 192 187 4 -4 113 -233 142
-299 35 -81 26 -79 391 -76 286 3 322 5 337 20 29 29 20 67 -49 218 -252 554
-300 657 -313 678 l-14 22 -393 0 -392 0 -424 -425z m979 312 c0 -1 -159 -163
-354 -360 l-353 -357 -247 0 c-135 0 -246 3 -246 7 0 4 159 166 353 360 l352
353 248 0 c136 0 247 -1 247 -3z m244 -185 c44 -97 102 -224 129 -282 92 -198
107 -231 107 -240 0 -6 -91 -10 -240 -10 l-239 0 -75 158 c-42 86 -82 168 -90
182 -14 24 -11 28 152 196 92 95 169 172 172 173 3 0 41 -79 84 -177z"/>
</g>
</svg>
