<?xml version="1.0" standalone="no"?>
<!DOCTYPE svg PUBLIC "-//W3C//DTD SVG 20010904//EN"
 "http://www.w3.org/TR/2001/REC-SVG-20010904/DTD/svg10.dtd">
<svg version="1.0" xmlns="http://www.w3.org/2000/svg"
 width="900.000000pt" height="900.000000pt" viewBox="0 0 1024.000000 1024.000000"
 preserveAspectRatio="xMidYMid meet">

<g transform="translate(0.000000,1024.000000) scale(0.100000,-0.100000)"
fill="#ffffff" stroke="none">
<path d="M1620 6471 c-5 -11 -10 -26 -10 -34 0 -7 37 -61 83 -119 151 -193
392 -511 404 -534 12 -20 8 -29 -40 -91 -51 -67 -268 -342 -357 -452 -88 -110
-93 -141 -27 -181 30 -19 54 -20 474 -20 283 0 460 4 493 11 62 13 90 40 214
199 50 63 146 186 215 273 70 87 132 173 140 192 26 65 12 91 -185 352 -259
344 -289 380 -334 403 -38 19 -59 20 -549 20 -494 0 -511 -1 -521 -19z m1035
-101 c15 -14 124 -151 242 -305 173 -225 214 -284 211 -305 -2 -14 -105 -153
-228 -309 -167 -212 -232 -287 -257 -297 -27 -12 -113 -14 -452 -12 l-420 3
225 280 c123 154 229 294 234 312 8 24 8 39 -3 65 -8 18 -99 143 -203 278
-203 263 -234 305 -234 314 0 4 193 5 429 4 l429 -3 27 -25z"/>
<path d="M1045 5831 c-55 -26 -46 -15 -410 -476 -99 -124 -115 -156 -115 -220
0 -61 -6 -52 273 -415 162 -212 212 -270 248 -290 l44 -25 450 -3 c297 -2 459
0 478 7 46 18 37 61 -31 150 -76 99 -196 254 -321 416 -66 86 -101 139 -101
156 0 18 64 107 230 319 146 186 230 302 230 316 0 13 -11 36 -24 51 l-24 28
-444 2 c-415 3 -446 2 -483 -16z m845 -87 c0 -3 -36 -51 -81 -107 -362 -457
-367 -464 -355 -532 7 -36 25 -61 288 -402 81 -106 148 -195 148 -198 0 -3
-170 -5 -377 -5 -340 0 -382 2 -413 18 -34 16 -138 144 -375 459 -107 142
-113 154 -93 196 9 17 71 102 139 188 68 87 160 203 204 259 44 56 91 108 105
115 20 11 104 14 418 15 215 0 392 -3 392 -6z"/>
<path d="M3825 5754 c-174 -34 -352 -169 -428 -324 -51 -105 -68 -177 -68
-300 -1 -86 4 -119 25 -186 83 -259 308 -424 578 -424 48 0 111 5 140 11 63
13 187 70 212 97 17 19 16 22 -8 69 -38 76 -48 81 -104 53 -89 -43 -153 -60
-229 -60 -274 0 -479 246 -433 519 17 101 66 195 140 265 68 65 135 98 236
116 60 11 82 10 150 -4 43 -8 100 -27 127 -40 26 -14 53 -23 60 -20 6 3 27 30
46 61 41 68 38 75 -50 120 -116 58 -255 75 -394 47z"/>
<path d="M6940 5499 c-131 -14 -245 -81 -324 -192 -64 -90 -87 -155 -93 -262
-19 -337 263 -577 600 -511 79 15 182 62 214 98 17 19 16 21 -12 75 -15 30
-35 57 -42 60 -8 3 -51 -12 -96 -33 -75 -35 -89 -39 -167 -39 -102 0 -161 23
-229 88 -40 39 -80 105 -81 134 0 10 87 13 388 15 l387 3 -1 90 c-1 145 -49
259 -147 352 -104 99 -233 138 -397 122z m186 -189 c59 -26 119 -83 148 -143
14 -28 26 -57 26 -64 0 -10 -59 -13 -295 -13 -162 0 -295 4 -295 9 0 46 63
139 126 188 72 54 197 64 290 23z"/>
<path d="M9179 5487 c-74 -31 -110 -57 -142 -104 -69 -100 -53 -244 35 -318
46 -39 94 -58 233 -95 66 -18 134 -41 151 -51 84 -51 61 -171 -40 -209 -34
-13 -119 -15 -167 -5 -19 4 -64 23 -101 42 -37 19 -71 32 -76 29 -5 -3 -26
-30 -47 -61 -37 -53 -38 -56 -21 -74 27 -30 145 -88 204 -100 204 -43 411 48
456 200 42 139 -2 262 -112 322 -27 15 -109 42 -182 62 -73 19 -137 38 -144
42 -65 36 -77 104 -26 147 38 31 82 40 168 34 46 -4 84 -14 120 -32 51 -26 55
-26 67 -10 30 42 58 103 52 117 -3 8 -36 30 -74 49 -63 31 -75 33 -183 36
-102 2 -121 0 -171 -21z"/>
<path d="M4740 5486 c-169 -47 -315 -203 -351 -374 -16 -79 -7 -214 20 -281
77 -193 256 -311 471 -311 231 0 432 158 485 381 20 86 19 141 -5 232 -24 96
-59 157 -130 227 -98 98 -209 141 -360 139 -47 0 -105 -6 -130 -13z m284 -191
c114 -57 170 -150 171 -280 0 -66 -5 -90 -26 -136 -72 -154 -247 -227 -404
-169 -80 30 -165 114 -190 189 -45 138 -2 283 109 368 66 50 109 63 202 60 66
-3 92 -9 138 -32z"/>
<path d="M5744 5487 c-108 -28 -177 -88 -215 -187 -17 -46 -19 -79 -19 -404 0
-313 2 -355 16 -360 28 -11 140 -6 152 6 9 9 12 98 12 338 0 358 2 369 63 414
27 20 87 26 141 15 15 -3 27 10 53 55 47 84 50 100 18 114 -41 19 -163 23
-221 9z"/>
<path d="M6304 5490 c-100 -20 -185 -86 -226 -175 -22 -49 -23 -59 -26 -403
-2 -261 0 -357 9 -368 12 -15 134 -20 156 -6 9 6 13 94 15 344 3 322 4 338 24
364 45 61 105 81 176 60 26 -8 29 -5 65 68 34 70 36 77 21 92 -29 29 -130 40
-214 24z"/>
<path d="M7655 5490 l-30 -5 0 -475 0 -475 65 -3 c35 -2 75 0 87 3 l23 5 0
470 c0 359 -3 471 -12 476 -15 9 -91 12 -133 4z"/>
<path d="M8288 5489 c-146 -34 -287 -165 -338 -313 -94 -274 54 -554 335 -632
73 -20 220 -18 287 4 204 67 338 252 338 467 0 224 -135 405 -349 469 -59 17
-209 20 -273 5z m265 -186 c71 -32 128 -94 158 -172 28 -74 23 -195 -10 -259
-33 -65 -87 -118 -149 -149 -49 -24 -69 -28 -137 -27 -130 1 -227 61 -282 172
-24 50 -28 69 -28 147 0 75 4 97 24 135 37 70 62 98 114 132 99 64 200 70 310
21z"/>
</g>
</svg>
