<?xml version="1.0" standalone="no"?>
<!DOCTYPE svg PUBLIC "-//W3C//DTD SVG 20010904//EN"
 "http://www.w3.org/TR/2001/REC-SVG-20010904/DTD/svg10.dtd">
<svg version="1.0" xmlns="http://www.w3.org/2000/svg"
 width="1000.000000pt" height="1000.000000pt" viewBox="0 0 1024.000000 1024.000000"
 preserveAspectRatio="xMidYMid meet">

<g transform="translate(0.000000,1024.000000) scale(0.100000,-0.100000)"
fill="#ffffff" stroke="none">
<path d="M4457 8323 c-9 -9 -9 -55 1 -69 4 -6 54 -44 112 -84 159 -111 234
-171 362 -291 413 -386 674 -891 783 -1511 13 -77 27 -143 30 -147 40 -39 26
283 -22 524 -102 509 -384 988 -778 1320 -128 108 -267 203 -349 239 -55 25
-125 34 -139 19z"/>
<path d="M3140 8124 c-271 -32 -470 -84 -714 -185 -468 -193 -907 -576 -1191
-1037 -181 -295 -305 -650 -350 -1005 -26 -198 -17 -554 18 -747 71 -391 215
-728 445 -1039 328 -443 751 -749 1224 -886 309 -89 684 -117 1008 -75 209 27
508 128 590 199 l25 22 -35 -4 c-19 -2 -89 -20 -155 -40 -289 -85 -622 -108
-910 -63 -421 66 -870 285 -1172 569 -176 166 -363 410 -481 627 -111 206
-199 463 -243 717 -19 106 -23 165 -23 348 0 197 3 235 27 368 60 321 166 596
336 866 252 401 586 706 985 900 996 485 2189 186 2789 -698 65 -96 80 -122
173 -305 41 -81 77 -146 80 -143 7 7 -21 110 -50 189 -154 407 -458 780 -851
1042 -195 130 -477 257 -695 313 -208 53 -311 65 -560 68 -129 2 -251 1 -270
-1z"/>
<path d="M3605 7518 c-111 -8 -253 -30 -313 -49 -39 -13 -57 -41 -42 -68 16
-31 38 -33 194 -16 257 27 562 18 756 -21 325 -66 600 -189 879 -393 69 -50
127 -89 129 -86 3 3 -22 35 -55 72 -168 189 -457 375 -722 463 -255 85 -541
119 -826 98z"/>
<path d="M3610 6988 c0 -40 29 -149 110 -423 116 -392 131 -450 137 -527 7
-89 -11 -213 -37 -255 -9 -16 -68 -63 -131 -105 -63 -42 -141 -101 -174 -130
-136 -119 -266 -287 -353 -455 -120 -233 -208 -586 -219 -878 -6 -170 1 -205
41 -205 29 0 48 31 73 114 24 81 109 288 161 394 203 408 497 692 729 705 203
12 396 -112 630 -406 52 -65 101 -121 109 -124 23 -8 44 16 44 52 0 35 -40
160 -88 275 -62 148 -210 361 -315 456 -40 36 -48 48 -43 68 8 32 58 81 110
109 39 21 52 22 326 23 213 1 309 5 382 18 123 20 203 46 203 66 0 11 -27 17
-124 27 -443 44 -723 175 -1018 474 -158 161 -300 357 -443 614 -40 72 -78
133 -84 137 -20 14 -26 8 -26 -24z"/>
<path d="M4601 6680 c-86 -18 -157 -75 -203 -164 -32 -60 -31 -174 1 -236 54
-103 110 -149 208 -169 96 -20 194 11 267 85 59 58 79 105 84 190 3 57 0 81
-18 122 -54 124 -203 200 -339 172z"/>
<path d="M5638 5811 c-199 -65 -308 -275 -253 -485 30 -114 114 -214 223 -264
83 -37 239 -44 331 -12 90 30 181 97 181 132 0 3 -20 23 -45 44 l-46 37 -42
-30 c-114 -82 -259 -82 -346 0 -37 35 -70 99 -71 134 l0 23 283 2 282 3 3 45
c11 146 -75 294 -208 357 -75 35 -208 42 -292 14z m230 -148 c33 -24 80 -90
84 -118 3 -19 -3 -20 -184 -23 l-188 -2 0 23 c0 37 56 106 103 128 55 26 145
22 185 -8z"/>
<path d="M6615 5812 c-64 -28 -99 -49 -119 -71 -26 -28 -36 -18 -36 35 l0 45
-137 -3 -138 -3 0 -65 0 -65 35 -5 c20 -4 41 -10 48 -14 9 -5 12 -67 12 -236
0 -251 -2 -260 -61 -260 -33 0 -42 -22 -37 -86 l3 -39 198 -3 197 -2 0 64 0
63 -40 7 c-25 4 -43 14 -50 27 -7 13 -10 79 -8 188 3 160 4 169 28 204 47 70
151 98 217 57 62 -37 66 -61 64 -368 -1 -101 -1 -101 -73 -116 -27 -6 -28 -9
-28 -66 l0 -60 210 0 211 0 -3 62 -3 63 -37 6 c-67 11 -66 7 -70 247 -3 201
-5 221 -26 267 -47 101 -105 137 -232 142 -65 2 -94 -1 -125 -15z"/>
<path d="M7398 5811 c-74 -24 -116 -51 -168 -107 -148 -161 -140 -415 18 -569
20 -20 66 -50 102 -68 58 -29 75 -32 171 -35 113 -4 171 8 249 51 44 24 100
77 100 94 0 13 -69 82 -83 83 -5 0 -24 -12 -42 -26 -117 -89 -280 -83 -365 14
-32 36 -69 126 -58 138 2 2 131 4 286 5 325 1 300 -9 283 114 -20 139 -108
261 -219 300 -73 26 -205 29 -274 6z m207 -140 c46 -21 92 -76 101 -121 l7
-30 -192 0 c-214 0 -210 -2 -169 71 49 87 160 123 253 80z"/>
<path d="M8440 5821 c-43 -14 -93 -42 -135 -76 l-40 -32 -2 43 c-1 24 -4 47
-6 51 -3 4 -67 8 -144 8 l-138 0 -3 -63 c-3 -67 -4 -66 61 -77 l37 -6 0 -239
c0 -177 -3 -241 -12 -246 -7 -4 -28 -10 -48 -14 l-35 -5 -3 -63 -3 -62 203 2
203 3 0 60 0 59 -43 9 c-58 11 -62 26 -62 205 0 169 12 210 75 258 50 38 135
45 183 14 60 -37 72 -81 72 -275 0 -93 -4 -176 -9 -184 -5 -8 -26 -17 -47 -20
l-39 -6 -3 -63 -3 -62 198 2 198 3 0 60 0 60 -39 6 c-21 3 -42 12 -47 20 -5 8
-9 92 -9 187 0 193 5 212 64 257 47 36 128 44 175 17 65 -35 72 -62 69 -277
l-3 -190 -45 -11 -45 -11 1 -59 2 -59 201 -3 201 -2 0 64 0 64 -39 7 c-22 4
-45 12 -51 19 -6 8 -12 94 -15 212 -6 224 -18 284 -67 340 -54 61 -100 79
-203 79 -76 0 -99 -4 -145 -26 -31 -14 -72 -41 -93 -58 l-36 -32 -32 36 c-50
56 -101 78 -194 81 -44 2 -91 0 -105 -5z"/>
</g>
</svg>
