<?xml version="1.0" standalone="no"?>
<!DOCTYPE svg PUBLIC "-//W3C//DTD SVG 20010904//EN"
 "http://www.w3.org/TR/2001/REC-SVG-20010904/DTD/svg10.dtd">
<svg version="1.0" xmlns="http://www.w3.org/2000/svg"
 width="1000.000000pt" height="1000.000000pt" viewBox="0 0 1024.000000 1024.000000"
 preserveAspectRatio="xMidYMid meet">

<g transform="translate(0.000000,1024.000000) scale(0.100000,-0.100000)"
fill="#ffffff" stroke="none">
<path d="M4725 9520 c-268 -22 -622 -83 -838 -146 -445 -129 -868 -338 -1200
-592 -54 -41 -182 -153 -285 -248 -179 -165 -329 -314 -1295 -1292 -235 -237
-439 -439 -452 -448 -36 -24 -31 -51 22 -108 95 -103 432 -454 581 -603 83
-85 152 -157 152 -161 0 -4 -72 -79 -160 -166 -88 -88 -160 -167 -160 -176 0
-39 20 -42 277 -38 l249 3 23 -205 c62 -558 240 -1133 496 -1604 86 -157 254
-407 358 -532 125 -151 378 -398 515 -504 490 -377 1118 -622 1747 -680 161
-15 494 -12 663 5 302 31 602 106 878 220 334 138 551 263 796 460 284 227
503 478 716 820 184 296 286 521 498 1103 24 65 116 178 592 721 106 122 142
182 121 207 -12 14 -40 16 -219 13 l-205 -4 0 156 0 155 29 35 c15 19 205 215
422 436 269 274 394 408 394 423 0 14 -126 152 -393 428 -216 224 -476 495
-577 602 -282 299 -601 619 -745 749 -234 212 -494 393 -765 534 -430 223
-894 368 -1370 427 -111 14 -724 21 -865 10z m825 -136 c410 -42 898 -187
1292 -385 132 -66 358 -203 481 -291 245 -175 435 -352 924 -866 520 -545 620
-649 846 -879 l189 -193 -270 -277 c-149 -153 -314 -321 -367 -373 -54 -52
-115 -122 -136 -154 l-39 -59 0 -198 0 -197 26 -31 26 -31 -579 0 c-318 0
-664 -3 -769 -7 l-191 -6 -6 209 c-4 173 -9 229 -30 324 -53 241 -113 399
-233 615 -209 376 -562 713 -939 895 -515 250 -1126 264 -1639 38 -350 -154
-657 -424 -883 -776 -177 -276 -289 -594 -343 -978 l-12 -81 -261 -6 c-144 -4
-496 -7 -782 -7 l-520 0 108 107 c133 130 144 145 125 171 -7 11 -146 156
-308 323 -162 167 -331 341 -374 386 l-79 82 39 48 c46 57 714 735 1248 1268
479 478 608 592 843 748 548 364 1222 568 1983 601 140 6 484 -5 630 -20z
m-432 -1835 c448 -49 842 -251 1182 -606 170 -177 302 -373 405 -602 122 -272
158 -459 157 -804 l0 -219 929 8 c511 4 929 4 929 0 0 -3 -57 -70 -127 -147
l-127 -141 -136 2 c-74 2 -457 2 -852 1 l-716 -1 -21 -62 c-11 -34 -18 -64
-15 -67 3 -3 365 -6 804 -6 439 0 801 -3 805 -7 4 -3 -24 -46 -61 -95 -37 -48
-74 -104 -82 -124 l-14 -36 -787 -5 c-550 -3 -792 -8 -807 -15 -18 -10 -74
-99 -74 -118 0 -5 365 -5 810 -2 536 5 810 4 810 -3 0 -32 -177 -444 -266
-621 -109 -216 -278 -483 -410 -649 -126 -158 -381 -396 -566 -528 -423 -300
-982 -508 -1503 -558 -204 -19 -575 -14 -755 11 -536 74 -1047 279 -1475 590
-173 126 -251 196 -428 383 -286 304 -519 677 -685 1097 -116 291 -195 577
-256 923 l-6 32 673 0 c373 0 678 4 686 9 17 11 8 100 -12 114 -6 5 -311 7
-687 5 l-675 -3 -12 90 c-6 50 -12 105 -12 123 l-1 32 608 0 c334 0 617 3 629
6 28 8 29 9 53 195 44 347 162 683 327 934 256 388 597 659 995 789 96 32 268
70 358 79 79 8 317 6 408 -4z"/>
<path d="M5332 8996 c-6 -19 -40 -195 -77 -391 -56 -295 -65 -359 -54 -366 19
-12 136 -11 144 0 3 5 24 105 46 223 23 117 44 220 47 228 4 13 16 -41 76
-354 17 -89 43 -129 74 -110 9 6 73 93 141 193 68 100 125 180 127 178 2 -2
-14 -93 -36 -203 -48 -243 -49 -261 -13 -275 43 -16 110 -22 117 -11 4 6 25
105 47 219 22 114 56 287 75 383 l34 175 -21 17 c-23 20 -110 48 -146 48 -18
0 -42 -29 -124 -152 -56 -84 -117 -177 -136 -208 -18 -30 -33 -52 -33 -48 0
10 -80 431 -86 450 -5 16 -96 38 -162 38 -27 0 -32 -5 -40 -34z"/>
<path d="M4395 9010 c-34 -5 -76 -12 -95 -17 -33 -9 -35 -12 -42 -64 -3 -30
-6 -222 -7 -427 -1 -310 1 -374 13 -378 8 -3 42 3 77 13 l64 19 3 76 3 75 75
17 c110 24 106 25 134 -49 23 -61 26 -65 56 -65 64 0 123 13 129 28 3 8 -19
79 -49 156 -31 78 -94 242 -142 366 -47 124 -93 233 -101 243 -17 18 -25 19
-118 7z m79 -337 c31 -87 58 -162 59 -167 2 -7 -81 -35 -110 -36 -9 0 -13 47
-15 180 -2 99 0 180 3 180 3 0 31 -71 63 -157z"/>
<path d="M3803 8849 c-35 -11 -63 -24 -63 -29 0 -6 51 -155 114 -332 62 -178
121 -349 130 -380 9 -31 20 -59 25 -63 5 -3 38 5 73 18 46 16 64 27 66 42 5
33 -233 719 -260 752 -13 16 -9 16 -85 -8z"/>
<path d="M6307 8813 c-10 -17 -256 -651 -267 -690 -7 -23 -10 -49 -6 -58 6
-16 114 -70 123 -61 3 3 31 69 63 148 32 79 101 248 154 377 107 263 106 245
17 276 -49 16 -77 19 -84 8z"/>
<path d="M3410 8686 c-61 -23 -156 -74 -189 -102 -44 -36 -61 -74 -61 -132 0
-44 15 -79 121 -288 67 -132 133 -254 148 -273 29 -37 76 -59 127 -60 43 -1
222 88 272 136 53 50 55 90 13 178 -49 101 -47 100 -113 71 -31 -14 -59 -29
-62 -34 -2 -4 3 -29 12 -54 13 -37 14 -49 4 -61 -20 -24 -102 -58 -122 -52
-12 4 -58 81 -125 210 -122 236 -122 237 -30 282 65 32 75 29 118 -36 l29 -41
50 27 c28 15 52 33 55 40 14 36 -63 160 -117 188 -35 18 -82 18 -130 1z"/>
<path d="M6658 8658 c-9 -13 -74 -129 -146 -258 -72 -129 -151 -271 -176 -315
-49 -85 -56 -123 -28 -147 22 -20 225 -145 276 -171 l40 -19 22 27 c12 15 31
44 43 65 l21 38 -110 68 c-60 38 -110 72 -110 76 0 5 70 135 155 291 85 156
155 288 155 293 0 8 -109 74 -123 74 -2 0 -11 -10 -19 -22z"/>
<path d="M2871 8342 c-37 -32 -43 -42 -38 -63 5 -21 339 -491 438 -618 32 -40
45 -37 113 24 l49 43 -50 59 c-28 32 -103 132 -167 223 -221 313 -265 370
-283 370 -10 0 -38 -17 -62 -38z"/>
<path d="M7188 8330 c-26 -16 -478 -627 -478 -648 0 -14 89 -92 106 -92 15 0
1 -18 284 360 l220 295 -52 47 c-58 52 -56 51 -80 38z"/>
<path d="M7375 8110 c-22 -28 -41 -54 -43 -58 -1 -4 22 -28 52 -52 30 -25 55
-49 56 -53 0 -5 -51 -63 -113 -130 -146 -158 -291 -326 -306 -355 -11 -20 -8
-28 29 -72 23 -28 48 -50 55 -50 7 0 44 35 82 77 210 238 378 423 385 423 3 0
27 -20 54 -45 27 -25 51 -45 55 -45 15 0 57 41 74 75 l20 37 -60 55 c-129 117
-278 243 -289 243 -6 0 -29 -23 -51 -50z"/>
<path d="M2419 7960 c-28 -28 -49 -55 -47 -60 5 -16 528 -569 547 -580 14 -7
27 -3 52 16 53 39 249 235 249 249 0 7 -22 33 -50 59 -60 56 -61 56 -155 -46
l-67 -73 -90 95 c-49 52 -151 161 -226 243 -75 81 -142 147 -149 147 -8 0 -37
-23 -64 -50z"/>
<path d="M2245 7714 c-6 -1 -27 -5 -47 -9 -74 -12 -213 -168 -240 -269 -11
-43 -11 -50 11 -91 22 -42 64 -82 350 -338 117 -105 173 -126 245 -92 33 16
146 134 190 200 34 50 36 118 3 162 -32 43 -388 403 -412 416 -22 11 -85 25
-100 21z m178 -331 c87 -87 163 -166 169 -177 8 -15 2 -27 -39 -68 -27 -27
-55 -47 -65 -46 -23 4 -358 309 -358 326 0 8 16 38 36 68 58 88 67 85 257
-103z"/>
<path d="M7880 7677 c-73 -38 -660 -426 -660 -436 1 -13 99 -111 112 -111 7 0
35 16 62 35 27 19 57 35 66 35 16 0 140 -119 140 -134 0 -5 -11 -23 -24 -40
-12 -17 -31 -46 -40 -64 l-17 -34 51 -51 52 -52 30 35 c16 19 84 109 151 200
67 91 161 218 209 284 49 65 91 129 94 142 4 13 -1 32 -10 46 -22 31 -166 158
-180 158 -6 0 -22 -6 -36 -13z m-54 -309 c-53 -73 -103 -141 -111 -152 -13
-17 -17 -16 -69 30 -56 48 -67 64 -43 64 6 1 80 45 162 99 83 54 151 97 153
96 2 -2 -40 -63 -92 -137z"/>
<path d="M8112 7103 c-247 -234 -392 -376 -392 -385 0 -4 24 -33 54 -65 l55
-58 98 98 c54 53 101 97 105 97 4 0 19 -16 34 -35 l26 -35 -72 -125 c-39 -68
-68 -130 -65 -136 11 -17 97 -69 115 -69 10 0 36 33 66 85 27 47 57 99 67 116
17 29 21 31 62 27 65 -8 109 17 207 120 104 108 128 144 128 195 0 58 -33 111
-133 214 -90 93 -130 123 -162 123 -9 0 -96 -75 -193 -167z m294 -182 c-31
-45 -120 -131 -135 -131 -5 0 -37 23 -72 52 l-62 52 93 89 93 89 55 -55 56
-56 -28 -40z"/>
<path d="M1702 7228 c-18 -13 -82 -76 -143 -142 -116 -125 -120 -134 -80 -180
38 -44 550 -526 559 -526 11 0 102 95 102 107 0 4 -36 44 -80 88 l-81 81 75
82 c144 156 143 195 -10 342 -153 147 -177 164 -248 168 -51 3 -66 0 -94 -20z
m145 -205 c69 -57 123 -112 123 -125 0 -12 -94 -116 -106 -117 -13 -1 -194
167 -194 180 0 9 98 119 106 119 2 0 34 -25 71 -57z"/>
<path d="M4800 7349 c-225 -20 -419 -73 -600 -163 -188 -95 -302 -177 -455
-331 -197 -197 -321 -385 -420 -639 -137 -351 -160 -709 -70 -1083 123 -511
491 -969 945 -1175 320 -146 557 -197 854 -185 455 19 819 180 1151 512 236
235 396 508 475 810 48 186 55 244 55 480 -1 241 -11 323 -65 505 -80 267
-224 510 -429 723 -398 413 -879 596 -1441 546z m440 -125 c458 -67 910 -391
1177 -843 72 -122 118 -236 158 -396 62 -243 70 -471 26 -725 -101 -587 -562
-1121 -1121 -1299 -186 -59 -286 -74 -495 -74 -160 -1 -207 3 -295 22 -244 52
-497 162 -687 298 -124 88 -310 281 -394 408 -197 297 -291 606 -290 949 0
213 29 374 102 582 165 467 560 864 1005 1009 260 86 536 109 814 69z"/>
<path d="M4959 7118 c-22 -45 -24 -47 -77 -54 l-54 -7 36 -36 c33 -34 35 -38
26 -76 -15 -66 -14 -67 40 -37 l50 27 39 -22 c22 -13 42 -23 44 -23 3 0 1 21
-4 46 -10 51 -2 72 36 102 14 11 25 23 25 26 0 3 -22 6 -49 6 -48 0 -49 0 -69
47 l-20 47 -23 -46z"/>
<path d="M4407 7064 c-3 -10 -9 -35 -12 -55 -6 -30 -15 -41 -51 -61 l-45 -24
50 -28 c46 -25 50 -30 57 -73 l7 -47 35 38 c33 36 37 38 84 34 27 -3 47 -2 46
1 -45 87 -44 78 -21 125 l21 43 -51 -5 c-49 -5 -52 -4 -83 33 -28 33 -32 36
-37 19z"/>
<path d="M5537 7043 c-34 -30 -43 -34 -74 -28 -19 3 -41 9 -49 12 -13 5 -13 0
1 -33 9 -22 19 -45 22 -52 3 -7 -9 -31 -26 -53 l-32 -39 59 0 c56 0 61 -2 83
-34 27 -40 39 -38 39 7 0 44 8 53 62 74 l46 18 -43 30 c-42 28 -44 33 -47 82
l-3 52 -38 -36z"/>
<path d="M4790 6805 c-305 -50 -552 -188 -737 -411 -191 -229 -283 -485 -283
-788 0 -360 122 -658 370 -907 466 -467 1179 -478 1667 -25 188 175 322 434
368 715 21 123 16 353 -9 467 -33 150 -125 356 -218 482 -125 171 -341 329
-556 407 -185 67 -421 90 -602 60z m150 -103 c0 -4 -21 -43 -46 -87 -26 -44
-101 -178 -168 -297 -66 -120 -128 -226 -137 -236 -12 -14 -42 -21 -130 -31
-63 -7 -203 -24 -312 -40 -109 -15 -200 -25 -201 -22 -8 14 57 151 107 226
163 244 404 405 702 469 39 9 88 17 110 19 22 2 48 4 58 5 9 1 17 -1 17 -6z
m269 -19 c281 -56 530 -227 693 -478 57 -87 117 -219 105 -231 -4 -5 -568 97
-620 112 -9 3 -69 92 -132 197 -63 106 -146 242 -184 303 -38 62 -67 115 -63
118 8 8 106 -2 201 -21z m-44 -428 c66 -111 115 -202 111 -210 -3 -8 -60 -88
-127 -177 -101 -133 -124 -158 -130 -142 -4 10 -7 188 -8 394 -1 367 0 375 18
353 10 -12 71 -110 136 -218z m-231 -177 c4 -208 3 -378 -2 -378 -13 0 -40 32
-157 184 -87 113 -105 143 -100 163 5 22 205 383 228 411 5 7 13 9 17 5 4 -4
10 -178 14 -385z m679 -128 c111 -23 210 -44 220 -48 11 -5 -106 -47 -349
-125 -201 -65 -368 -116 -370 -114 -5 5 82 128 173 245 55 70 68 82 94 82 16
0 120 -18 232 -40z m-915 -90 c110 -135 156 -199 149 -207 -5 -4 -734 234
-746 244 -2 1 -1 6 3 10 9 9 432 72 471 70 25 -2 44 -20 123 -117z m1368 -88
c48 -269 -18 -583 -169 -816 -60 -92 -210 -256 -223 -244 -6 7 -20 109 -75
545 l-12 92 39 48 c116 145 379 460 393 471 21 17 30 -1 47 -96z m-2053 1 c34
-42 124 -148 199 -235 75 -87 141 -166 146 -175 8 -15 -15 -273 -54 -613 l-6
-54 -97 99 c-199 205 -305 448 -318 731 -5 107 8 289 24 330 9 23 39 -1 106
-83z m1850 34 c-21 -35 -330 -367 -341 -367 -30 0 -392 125 -389 134 2 5 158
60 348 121 189 61 351 114 359 117 25 10 31 9 23 -5z m-1388 -116 c187 -62
342 -116 345 -118 9 -8 -26 -22 -201 -83 -148 -51 -180 -59 -195 -49 -22 13
-307 342 -313 360 -4 14 -27 21 364 -110z m282 -344 c-101 -134 -334 -462
-340 -480 -15 -41 -12 25 8 232 19 198 25 237 41 248 10 7 21 13 26 13 4 0 70
23 145 51 152 57 196 69 201 57 2 -5 -34 -59 -81 -121z m543 72 c102 -33 188
-64 192 -67 6 -7 61 -473 55 -478 -3 -3 -421 561 -440 593 -4 7 -4 13 0 13 5
0 92 -27 193 -61z m-361 -202 l0 -208 -25 -15 c-25 -17 -433 -194 -446 -194
-9 0 137 212 296 430 158 217 160 219 169 206 4 -6 7 -104 6 -219z m189 81
c221 -304 341 -478 328 -478 -7 0 -379 151 -407 166 l-27 13 -4 203 c-2 112
-3 206 -1 211 9 18 27 0 111 -115z m151 -503 c173 -69 320 -125 328 -125 28 0
10 -18 -67 -64 -266 -161 -591 -196 -893 -96 -92 31 -268 118 -274 136 -1 5
41 29 95 53 53 24 185 83 292 132 107 49 197 88 200 89 3 0 146 -56 319 -125z"/>
<path d="M4085 6777 c-27 -27 -33 -28 -82 -22 -59 7 -61 4 -38 -52 15 -34 14
-37 -15 -77 l-31 -41 44 -3 c35 -2 51 -10 77 -37 41 -42 50 -43 50 -7 0 40 11
72 24 72 6 0 29 5 51 11 l40 11 -39 34 c-33 29 -39 41 -45 86 l-6 53 -30 -28z"/>
<path d="M5836 6748 c-7 -48 -12 -56 -48 -82 l-42 -28 49 -17 c47 -15 50 -18
60 -66 l10 -49 35 42 35 42 53 -9 52 -8 -15 23 c-48 76 -46 67 -28 112 9 23
14 44 11 47 -3 3 -24 -2 -48 -10 l-44 -15 -37 36 -36 36 -7 -54z"/>
<path d="M3742 6401 c-20 -34 -29 -41 -67 -46 -24 -4 -48 -4 -54 0 -20 11 -12
-6 20 -46 32 -40 33 -48 13 -117 -7 -23 -7 -23 31 -8 50 21 63 20 101 -9 18
-14 35 -25 38 -25 3 0 2 22 -1 48 -5 48 -5 49 36 78 22 16 41 32 41 35 0 4
-21 12 -46 18 -41 11 -47 16 -68 62 l-22 50 -22 -40z"/>
<path d="M6187 6370 c-15 -43 -22 -51 -55 -60 -20 -5 -43 -10 -51 -10 -8 0 4
-16 27 -36 40 -34 42 -38 42 -90 l0 -55 40 32 41 33 49 -21 c28 -12 50 -20 50
-19 0 1 -7 23 -16 49 l-16 47 31 37 c17 21 31 41 31 45 0 5 -22 8 -50 8 -48 0
-50 1 -76 45 -14 25 -27 45 -28 45 -1 0 -9 -22 -19 -50z"/>
<path d="M3558 5926 c-11 -43 -16 -48 -60 -64 -26 -9 -48 -19 -48 -22 0 -3 16
-15 35 -28 33 -21 35 -25 35 -78 l0 -56 41 30 c43 32 53 32 111 1 17 -9 19 -8
15 8 -21 73 -20 84 13 118 l31 32 -23 7 c-13 3 -33 6 -45 6 -14 0 -32 14 -49
38 -16 20 -31 41 -36 46 -4 5 -13 -12 -20 -38z"/>
<path d="M6361 5921 c-25 -39 -50 -51 -109 -51 -26 0 -26 0 11 -38 l36 -37
-13 -53 c-8 -28 -12 -52 -10 -52 3 0 23 9 46 21 l41 21 43 -31 44 -31 0 54 c0
52 2 56 40 84 l41 30 -57 14 c-56 13 -57 14 -71 61 -7 26 -15 47 -16 47 -1 0
-13 -18 -26 -39z"/>
<path d="M6390 5439 c-27 -23 -41 -29 -62 -25 -16 3 -42 9 -58 12 l-30 7 20
-48 20 -47 -30 -38 c-16 -21 -30 -39 -30 -41 0 -2 22 -2 49 -1 48 4 50 3 77
-37 30 -46 36 -44 54 12 10 33 17 39 56 49 l44 12 -41 42 c-40 41 -42 45 -36
88 4 25 6 46 4 46 -1 -1 -18 -14 -37 -31z"/>
<path d="M3530 5409 c0 -51 -2 -55 -40 -83 -22 -16 -37 -32 -34 -35 3 -3 24
-13 47 -21 37 -14 44 -21 57 -64 l16 -48 27 41 c26 40 29 41 83 41 l55 0 -31
45 c-30 44 -31 46 -16 87 8 24 12 45 10 47 -2 2 -22 -4 -45 -13 -45 -18 -46
-18 -101 33 l-28 25 0 -55z"/>
<path d="M6130 4955 c0 -46 -11 -64 -59 -95 l-24 -16 44 -19 c24 -10 46 -20
48 -22 2 -1 9 -26 15 -54 l12 -53 34 47 c31 44 37 47 77 47 24 0 43 2 43 6 0
3 -11 21 -24 41 l-25 36 19 47 19 48 -48 -13 c-43 -11 -50 -11 -72 7 -55 43
-59 43 -59 -7z"/>
<path d="M3797 4949 c-37 -31 -50 -32 -119 -13 -15 4 -14 -1 4 -45 l21 -50
-26 -40 c-15 -22 -27 -42 -27 -43 0 -2 20 -2 45 0 43 4 48 2 84 -39 l38 -44 8
54 c7 52 8 53 56 73 l49 21 -40 29 c-34 25 -40 35 -40 66 0 60 -11 66 -53 31z"/>
<path d="M5860 4592 c-22 -41 -31 -48 -74 -60 l-48 -14 33 -28 c19 -16 38 -29
43 -30 4 0 5 -26 1 -57 l-7 -57 35 27 c43 32 56 33 107 7 22 -11 40 -18 40
-16 0 3 -5 28 -11 56 -11 51 -11 52 21 85 l33 34 -52 7 c-49 6 -53 9 -74 50
l-22 43 -25 -47z"/>
<path d="M4090 4562 c-21 -37 -27 -41 -77 -47 l-54 -7 36 -39 c26 -30 34 -46
30 -64 -3 -14 -7 -36 -10 -50 l-6 -26 40 21 c52 26 63 25 99 -5 17 -14 33 -25
37 -25 3 0 3 24 0 54 -7 53 -6 54 29 81 20 15 36 31 36 35 0 5 -18 11 -39 15
-41 7 -59 22 -83 69 l-15 29 -23 -41z"/>
<path d="M5498 4343 c-37 -37 -38 -37 -88 -27 -27 6 -50 10 -50 8 0 -1 11 -21
25 -45 l24 -44 -24 -42 c-14 -23 -25 -45 -25 -49 0 -4 21 -4 47 0 44 6 49 4
84 -30 l37 -36 9 52 c8 54 13 60 73 83 l35 14 -45 23 c-58 29 -54 23 -60 81
l-5 50 -37 -38z"/>
<path d="M4480 4320 c-15 -58 -24 -67 -71 -81 l-39 -12 39 -29 c35 -26 40 -35
47 -84 l7 -56 36 36 c38 37 61 43 105 26 30 -11 31 -10 11 37 -20 48 -19 59
10 97 14 18 25 35 25 37 0 2 -21 2 -47 0 -43 -3 -48 -1 -79 35 l-32 39 -12
-45z"/>
<path d="M4923 4219 c6 -52 6 -53 -33 -89 l-40 -37 52 -9 c49 -8 55 -12 75
-52 l21 -43 27 45 c26 45 28 46 76 46 27 0 49 3 49 8 0 4 -17 21 -37 38 l-37
31 11 49 c6 27 10 50 8 52 -1 2 -23 -7 -48 -19 l-46 -22 -42 27 -42 28 6 -53z"/>
<path d="M6288 4237 c-23 -10 -164 -137 -156 -141 2 0 389 1 861 4 l859 5 25
30 c35 42 63 88 63 103 0 17 -1612 17 -1652 -1z"/>
<path d="M5714 3832 c-78 -27 -274 -116 -274 -124 0 -5 451 -8 1002 -8 l1001
0 59 58 c100 101 183 92 -839 92 -834 -1 -902 -2 -949 -18z"/>
<path d="M5383 3522 c-807 -1 -1393 -6 -1393 -11 0 -5 32 -36 70 -68 l70 -60
184 -6 c199 -6 2798 1 2831 8 11 3 54 36 95 75 l75 71 -270 -3 c-148 -2 -897
-4 -1662 -6z"/>
<path d="M6250 3045 c-58 -20 -134 -61 -154 -84 -25 -28 -17 -68 44 -196 70
-150 90 -158 224 -95 76 36 101 69 87 116 -13 41 -90 204 -112 235 -23 33 -45
39 -89 24z m66 -161 c62 -118 62 -119 15 -144 -67 -33 -76 -29 -116 55 -55
116 -55 126 -3 152 24 12 48 21 53 19 6 -1 29 -38 51 -82z"/>
<path d="M4226 2964 c-13 -35 -5 -44 60 -64 80 -24 100 -25 108 -4 13 34 5 42
-61 58 -38 9 -75 19 -84 22 -10 2 -19 -2 -23 -12z"/>
<path d="M3831 2944 c-11 -14 -28 -46 -37 -71 -16 -41 -16 -48 -3 -72 8 -14
39 -39 69 -56 59 -33 73 -61 44 -85 -24 -21 -110 25 -107 57 2 16 -6 24 -29
32 -17 6 -32 11 -33 11 -1 0 -7 -18 -14 -41 -11 -36 -10 -43 6 -61 23 -26 150
-88 180 -88 34 0 71 40 84 91 18 67 2 99 -66 134 -60 30 -68 42 -51 76 13 27
41 27 89 2 21 -10 28 -20 24 -34 -4 -14 3 -24 25 -35 36 -19 46 -11 55 39 7
46 -21 76 -101 106 -76 28 -110 27 -135 -5z"/>
<path d="M5843 2870 c-13 -5 -23 -12 -23 -15 0 -5 98 -282 116 -328 9 -23 32
-20 143 23 80 31 80 31 69 58 -19 44 -23 45 -90 14 l-65 -29 -48 143 c-51 150
-54 153 -102 134z"/>
<path d="M4108 2706 c-54 -85 -99 -160 -100 -167 -2 -6 13 -17 32 -24 34 -12
36 -11 58 22 26 38 21 37 87 15 47 -16 50 -19 53 -54 3 -31 8 -38 34 -47 17
-6 35 -11 39 -11 5 0 9 88 9 195 l0 195 -27 11 c-16 6 -41 13 -58 16 -29 4
-33 0 -127 -151z m137 -43 c-3 -29 -8 -53 -9 -53 -2 0 -20 7 -39 15 l-36 15
42 67 c40 65 42 66 45 38 2 -16 1 -53 -3 -82z"/>
<path d="M5713 2833 c-13 -2 -23 -6 -23 -7 0 -2 14 -68 30 -147 35 -162 35
-161 -42 -173 -28 -5 -44 -3 -49 5 -4 7 -17 60 -29 118 -36 176 -32 166 -66
163 -16 -2 -32 -7 -37 -11 -4 -4 7 -79 25 -166 29 -140 36 -160 59 -178 25
-18 33 -18 90 -8 169 30 177 39 150 172 -53 257 -47 244 -108 232z"/>
<path d="M4452 2784 c-7 -3 -19 -18 -26 -32 -19 -37 -48 -219 -44 -273 4 -55
22 -65 143 -81 114 -15 119 -10 145 138 24 132 25 187 5 208 -22 21 -193 52
-223 40z m110 -84 c21 -6 40 -15 43 -20 8 -12 -14 -169 -27 -192 -10 -20 -52
-24 -92 -8 -31 11 -32 31 -12 136 19 102 20 103 88 84z"/>
<path d="M5278 2748 c-12 -10 -24 -63 -44 -195 -15 -101 -25 -186 -21 -189 3
-4 22 -3 40 0 30 6 36 12 41 40 5 28 12 35 37 40 70 14 89 8 105 -30 14 -34
17 -36 52 -29 20 4 39 8 41 10 5 6 -11 47 -81 214 l-63 151 -46 0 c-25 0 -52
-6 -61 -12z m120 -223 c-2 -2 -23 -6 -47 -10 l-43 -7 6 38 c3 22 8 61 12 88
l7 48 34 -77 c18 -43 32 -79 31 -80z"/>
<path d="M4947 2733 l-37 -4 2 -187 3 -187 38 -3 37 -3 0 59 0 60 70 4 c54 3
75 8 91 24 27 27 34 86 19 158 -11 52 -15 59 -46 72 -32 13 -92 16 -177 7z
m143 -99 c25 -64 4 -94 -64 -94 l-36 0 0 60 0 60 45 0 c40 0 47 -3 55 -26z"/>
</g>
</svg>
