<?xml version="1.0" encoding="UTF-8"?>
<svg version="1.1" xmlns="http://www.w3.org/2000/svg" width="666" height="375">
<path d="M0 0 C6.92037481 1.38407496 10.69192238 6.83030686 15 12 C16.45902756 13.20528364 17.91881218 14.40993741 19.3984375 15.58984375 C21.94748915 17.83425265 24.06659934 20.42722118 26.26171875 23.01171875 C27.87321251 24.8549779 29.54824866 26.55442997 31.3125 28.25 C33.65160677 30.6435046 34.59960059 32.10584121 36 35 C36.825 35.804375 37.65 36.60875 38.5 37.4375 C40.98798489 39.98768452 41.73987448 41.75967724 43 45 C43.99 45.33 44.98 45.66 46 46 C47.11914062 47.49047852 47.11914062 47.49047852 48.15625 49.37890625 C48.53910156 50.05244141 48.92195312 50.72597656 49.31640625 51.41992188 C50.10712261 52.85130117 50.89617925 54.28359854 51.68359375 55.71679688 C52.71259446 57.52361125 53.84950839 59.26800991 55 61 C60.07899802 61 63.67722549 57.57092051 67.6875 54.6875 C75.02729855 49.52245658 82.58805975 45.06590845 90.67578125 41.17578125 C93.05902559 40.01434015 93.05902559 40.01434015 95.43359375 38.4765625 C98.16510848 36.90500608 100.74206338 35.98954925 103.75 35.0625 C107.50568534 33.87167294 110.98379145 32.58343715 114.5 30.8125 C119.79744598 28.32474912 125.23522415 28.2472781 131 28 C130.82476807 28.96160034 130.82476807 28.96160034 130.64599609 29.94262695 C129.70715816 35.09978626 128.77474008 40.25798207 127.8515625 45.41796875 C125.84134779 56.55685611 123.74172254 67.57988319 120.84765625 78.5234375 C119.52226581 83.95937063 118.72153567 89.455568 118 95 C117.3608667 94.98952637 116.7217334 94.97905273 116.06323242 94.96826172 C113.10469665 94.92611505 110.14622439 94.90049055 107.1875 94.875 C105.68026367 94.84986328 105.68026367 94.84986328 104.14257812 94.82421875 C94.01305686 94.75907713 84.92897638 96.08491771 75.6875 100.3125 C75.02427734 100.59544922 74.36105469 100.87839844 73.67773438 101.16992188 C66.95005842 104.16516556 62.06987449 108.68281456 57 114 C56.4534375 114.56332031 55.906875 115.12664062 55.34375 115.70703125 C50.47970721 120.94441066 47.1968523 126.62971556 44 133 C42.68 133 41.36 133 40 133 C39.93683594 131.94683594 39.87367188 130.89367187 39.80859375 129.80859375 C38.75459988 116.3253379 34.72223313 106.22526228 27 95 C26.55398438 94.32195312 26.10796875 93.64390625 25.6484375 92.9453125 C20.11809712 85.03997932 12.5032075 79.40907055 4 75 C3.37609375 74.65195313 2.7521875 74.30390625 2.109375 73.9453125 C-2.7848946 71.30548992 -7.53472947 69.96148278 -13 69 C-13.28036497 62.49856378 -12.25213765 56.91855493 -10.6875 50.625 C-9.04604523 43.75255441 -7.56412772 36.92311108 -6.5 29.9375 C-4.94456053 19.81905421 -2.48620312 9.9241556 0 0 Z " fill="#FC0201" transform="translate(502,83)"/>
<path d="M0 0 C7.35641344 4.24227676 9.88116834 8.77055517 12.5 16.75 C15.670836 29.39216432 13.67216509 44.28740769 7.5 55.75 C3.30577429 61.74974001 -0.97996745 67.27264931 -7.5 70.75 C-8.3765625 71.26433594 -9.253125 71.77867187 -10.15625 72.30859375 C-14.20500553 74.05391009 -17.45131895 74.32462517 -21.8125 74.3125 C-22.56144531 74.3137085 -23.31039062 74.31491699 -24.08203125 74.31616211 C-31.08698476 74.11017878 -35.56238348 71.68761652 -40.5 66.75 C-43.02210561 75.49166701 -44.99521464 83.87049008 -46.0078125 92.921875 C-46.5 95.75 -46.5 95.75 -48.5 98.75 C-50.56298828 99.09057617 -50.56298828 99.09057617 -53.0703125 99.04296875 C-53.96621094 99.03330078 -54.86210937 99.02363281 -55.78515625 99.01367188 C-56.72230469 98.98853516 -57.65945313 98.96339844 -58.625 98.9375 C-59.56988281 98.92396484 -60.51476562 98.91042969 -61.48828125 98.89648438 C-63.82608779 98.86106306 -66.16276237 98.81167271 -68.5 98.75 C-69.71923042 94.69111129 -68.8821459 92.77625109 -67.5 88.75 C-66.83066455 85.28810304 -66.33824591 81.79873727 -65.8125 78.3125 C-64.26453307 68.50743978 -62.25098138 58.85127538 -60 49.1875 C-57.61435344 38.94543658 -55.45752849 28.71203517 -53.83007812 18.31811523 C-52.81622112 11.97847711 -51.26696261 5.92444237 -49.5 -0.25 C-43.23 -0.25 -36.96 -0.25 -30.5 -0.25 C-30.5 0.74 -30.5 1.73 -30.5 2.75 C-29.30117188 2.20859375 -29.30117188 2.20859375 -28.078125 1.65625 C-18.35927866 -2.45030479 -9.89992753 -4.66731576 0 0 Z M-28.75 18 C-34.3060754 23.5560754 -35.54024307 33.28624072 -35.875 40.8125 C-35.74402716 46.81854036 -33.69698953 51.32573569 -29.6875 55.75 C-26.36884789 57.26709811 -24.10816656 57.24767815 -20.5 56.75 C-13.93865057 52.86675238 -9.80075138 45.61029258 -7.84765625 38.3125 C-7.43549096 35.27451764 -7.29298149 32.31601279 -7.25 29.25 C-7.22421875 28.1465625 -7.1984375 27.043125 -7.171875 25.90625 C-7.60776639 21.71338997 -9.33900236 19.29799686 -11.8125 16 C-17.68490062 11.65007362 -23.12389867 14.87438815 -28.75 18 Z " fill="#0A0A0A" transform="translate(464.5,196.25)"/>
<path d="M0 0 C6.92064973 4.54125149 9.59651372 9.68950101 11.4296875 17.5625 C12.80095671 25.82768426 12.64918342 33.05244973 10 41 C-4.85 41 -19.7 41 -35 41 C-33.21289152 48.64048521 -33.21289152 48.64048521 -28.17578125 54.13671875 C-24.39460264 55.63697094 -20.83538839 55.21225669 -17 54 C-14.89833713 52.17620121 -13.61753094 50.30375619 -12 48 C-11.34 48 -10.68 48 -10 48 C-10 47.34 -10 46.68 -10 46 C-4.06 46.66 1.88 47.32 8 48 C9 52 9 52 7.9609375 54.18359375 C1.45925956 63.42366314 -6.34052382 70.94793219 -18 73 C-29.33179616 73.92795811 -38.18865567 71.24804131 -47 64 C-49.3125 61.1875 -49.3125 61.1875 -51 58 C-51.33733154 57.3810083 -51.67466309 56.7620166 -52.0222168 56.12426758 C-55.1555069 49.85550592 -55.60944388 44.44056627 -55.5 37.5 C-55.51546875 36.51902344 -55.5309375 35.53804687 -55.546875 34.52734375 C-55.51091937 27.77667379 -54.13713525 22.93326163 -51 17 C-50.34935085 15.58553868 -49.70286216 14.16914814 -49.0625 12.75 C-47.25558796 9.17174506 -44.99664928 6.68930063 -42 4 C-41.29532593 3.23949341 -41.29532593 3.23949341 -40.57641602 2.46362305 C-29.50176237 -7.8186363 -12.16071728 -6.42254332 0 0 Z M-30 19 C-30.99 22.465 -30.99 22.465 -32 26 C-24.08 26 -16.16 26 -8 26 C-8.315685 17.82956615 -8.315685 17.82956615 -10.4375 14.4375 C-17.52931141 10.45916677 -25.41164837 12.33906908 -30 19 Z " fill="#0B0B0B" transform="translate(316,197)"/>
<path d="M0 0 C3.22666312 2.67850413 4.72807181 5.59158902 5.31835938 9.76464844 C5.46555087 12.18294254 5.48960592 14.56958973 5.4609375 16.9921875 C5.45553955 17.87084473 5.4501416 18.74950195 5.44458008 19.65478516 C5.26149167 27.68317572 3.68318725 35.01760392 1.54931641 42.72314453 C-0.72038031 51.16759648 -2.24583432 59.80985212 -3.546875 68.44921875 C-3.9765625 70.6796875 -3.9765625 70.6796875 -4.9765625 71.6796875 C-6.45308914 71.77849547 -7.93423486 71.81047995 -9.4140625 71.8125 C-10.75597656 71.81443359 -10.75597656 71.81443359 -12.125 71.81640625 C-13.53652344 71.81060547 -13.53652344 71.81060547 -14.9765625 71.8046875 C-16.38808594 71.81048828 -16.38808594 71.81048828 -17.828125 71.81640625 C-18.72273438 71.81511719 -19.61734375 71.81382812 -20.5390625 71.8125 C-21.36535156 71.81137207 -22.19164062 71.81024414 -23.04296875 71.80908203 C-24.9765625 71.6796875 -24.9765625 71.6796875 -25.9765625 70.6796875 C-25.55529713 64.36070692 -24.27829552 58.43305708 -22.80078125 52.28515625 C-21.74488747 47.66624647 -20.88502427 43.02227237 -20.03833008 38.36132812 C-19.37915351 34.75320376 -18.65140732 31.18195094 -17.7890625 27.6171875 C-16.80208314 23.32382726 -15.94562307 18.74156636 -17.9765625 14.6796875 C-21.48848015 13.33689546 -22.95963194 13.67344992 -26.5390625 14.9921875 C-27.6734375 15.5490625 -28.8078125 16.1059375 -29.9765625 16.6796875 C-30.7396875 16.9684375 -31.5028125 17.2571875 -32.2890625 17.5546875 C-34.74876958 19.19449222 -35.02420145 20.88212691 -35.9765625 23.6796875 C-36.60863366 24.98666728 -37.24301375 26.29253142 -37.87890625 27.59765625 C-40.38648198 33.20319179 -41.44842225 38.91386884 -42.5390625 44.9296875 C-42.96095231 47.14347488 -43.38411765 49.35701957 -43.80859375 51.5703125 C-44.00791504 52.62283203 -44.20723633 53.67535156 -44.41259766 54.75976562 C-47.37034488 70.07346988 -47.37034488 70.07346988 -48.9765625 71.6796875 C-50.39226373 71.76620361 -51.8121575 71.78673654 -53.23046875 71.77734375 C-54.08447266 71.77412109 -54.93847656 71.77089844 -55.81835938 71.76757812 C-56.71619141 71.75919922 -57.61402344 71.75082031 -58.5390625 71.7421875 C-59.44076172 71.73767578 -60.34246094 71.73316406 -61.27148438 71.72851562 C-63.50657564 71.71668975 -65.74153687 71.7002097 -67.9765625 71.6796875 C-68.2793344 65.32147753 -67.75746386 59.42542294 -66.6640625 53.1796875 C-66.54635498 52.49269775 -66.42864746 51.80570801 -66.30737305 51.09790039 C-65.59589036 47.23003833 -64.65085381 43.53834524 -63.4609375 39.7890625 C-61.88956019 34.7075766 -61.16450793 29.69918837 -60.5390625 24.4296875 C-57.67133351 2.37445851 -57.67133351 2.37445851 -53.9765625 -1.3203125 C-50.83913482 -1.59718137 -47.68726973 -1.55204879 -44.5390625 -1.5703125 C-43.65412109 -1.5909375 -42.76917969 -1.6115625 -41.85742188 -1.6328125 C-40.58801758 -1.64054688 -40.58801758 -1.64054688 -39.29296875 -1.6484375 C-38.51381104 -1.6577832 -37.73465332 -1.66712891 -36.93188477 -1.67675781 C-36.28662842 -1.55913086 -35.64137207 -1.44150391 -34.9765625 -1.3203125 C-34.3165625 -0.3303125 -33.6565625 0.6596875 -32.9765625 1.6796875 C-32.26113281 1.31875 -31.54570312 0.9578125 -30.80859375 0.5859375 C-20.08006691 -4.41053037 -10.74116707 -5.45979589 0 0 Z " fill="#0C0C0C" transform="translate(249.9765625,197.3203125)"/>
<path d="M0 0 C6.93 0 13.86 0 21 0 C20.75003495 7.91556006 20.04587041 14.58375545 17.625 22.0625 C15.486549 28.72916172 14.11798747 35.31889941 13.125 42.25 C12.99303223 43.14340088 12.86106445 44.03680176 12.72509766 44.95727539 C12.15688638 49.20426965 11.73853082 52.81814326 13 57 C17.9169363 56.46460027 21.87568764 55.75487212 25.3125 52 C30.7763635 44.63434976 32.49719629 36.30997687 34.14453125 27.4453125 C35.16993976 21.97561792 36.39792026 16.55238377 37.625 11.125 C37.95262329 9.65208496 37.95262329 9.65208496 38.28686523 8.14941406 C38.49384033 7.23643555 38.70081543 6.32345703 38.9140625 5.3828125 C39.0992041 4.56184082 39.2843457 3.74086914 39.47509766 2.89501953 C40 1 40 1 41 0 C42.4887186 -0.08669432 43.981445 -0.10703494 45.47265625 -0.09765625 C46.37177734 -0.09443359 47.27089844 -0.09121094 48.19726562 -0.08789062 C49.61555664 -0.07532227 49.61555664 -0.07532227 51.0625 -0.0625 C52.01189453 -0.05798828 52.96128906 -0.05347656 53.93945312 -0.04882812 C56.29303065 -0.0370011 58.64648477 -0.02052025 61 0 C60.68637509 8.63420403 59.06738512 16.61866354 57.08374023 25.00390625 C55.11424585 33.35619025 53.41079294 41.74654605 51.78808594 50.17260742 C47.90355352 70.09644648 47.90355352 70.09644648 45 73 C43.12060547 73.22705078 43.12060547 73.22705078 40.8671875 73.1953125 C40.06152344 73.18886719 39.25585938 73.18242187 38.42578125 73.17578125 C37.58402344 73.15902344 36.74226563 73.14226562 35.875 73.125 C35.02550781 73.11597656 34.17601562 73.10695313 33.30078125 73.09765625 C31.20040116 73.07405647 29.10016556 73.03818483 27 73 C26.67 71.35 26.34 69.7 26 68 C25.0925 68.61875 24.185 69.2375 23.25 69.875 C17.98904177 73.3148573 14.45235396 74.38525579 8.125 74.4375 C7.43019531 74.47037109 6.73539063 74.50324219 6.01953125 74.53710938 C2.12601749 74.57743767 -0.38199147 74.08576332 -3.36328125 71.6640625 C-8.40960998 66.56540147 -11.11147107 62.06387461 -11.20703125 54.91015625 C-11.14249935 49.55619571 -9.97509794 44.61260045 -8.6875 39.4375 C-8.22279182 37.49147326 -7.7605673 35.54485181 -7.30078125 33.59765625 C-7.07600098 32.64777832 -6.8512207 31.69790039 -6.61962891 30.71923828 C-5.76209902 26.95597277 -5.05032824 23.17454095 -4.375 19.375 C-3.19381027 12.82783406 -1.68901935 6.43435942 0 0 Z " fill="#090909" transform="translate(117,196)"/>
<path d="M0 0 C4.64350284 3.5651157 7.22593036 7.08068392 8 12.9375 C8.125 15.21484375 8.125 15.21484375 8 17 C6.5000589 18.4999411 5.05340395 18.31607651 2.96484375 18.53515625 C2.15595703 18.62216797 1.34707031 18.70917969 0.51367188 18.79882812 C-0.33646484 18.88583984 -1.18660156 18.97285156 -2.0625 19.0625 C-2.91650391 19.15337891 -3.77050781 19.24425781 -4.65039062 19.33789062 C-6.76651535 19.56250722 -8.88320894 19.78175227 -11 20 C-11.45117188 19.20207031 -11.90234375 18.40414062 -12.3671875 17.58203125 C-14.38582852 14.38987403 -15.34991586 13.87284621 -19 13 C-23.24344314 12.71610768 -26.94280311 12.64760104 -31 14 C-31.73323796 16.01508358 -31.73323796 16.01508358 -32 18 C-26.60387909 20.9721298 -21.38231872 23.27994466 -15.4375 24.9375 C-8.13557559 27.09880074 -1.45025467 29.87417696 2.5625 36.6875 C4.89362761 42.30583981 5.15375423 48.52696431 3.234375 54.3046875 C2.27868639 56.31466751 1.21987362 58.14033253 0 60 C-0.53625 60.86625 -1.0725 61.7325 -1.625 62.625 C-9.59776452 70.59776452 -17.75696531 72.23239546 -28.5625 72.375 C-29.60986328 72.41238281 -30.65722656 72.44976562 -31.73632812 72.48828125 C-39.39852839 72.57399884 -44.46655176 70.91590309 -51 67 C-52.0725 66.46375 -53.145 65.9275 -54.25 65.375 C-58.42485964 61.7694394 -61.1131407 57.17601481 -63 52 C-62.66015625 49.15234375 -62.66015625 49.15234375 -62 47 C-44.90926994 43.78125427 -44.90926994 43.78125427 -40.47265625 46.61328125 C-39.02418847 48.68831271 -38.01170976 50.68953725 -37 53 C-34.16239474 54.41880263 -31.72317025 54.1320472 -28.5625 54.125 C-27.40878906 54.12757813 -26.25507813 54.13015625 -25.06640625 54.1328125 C-21.95874333 54.13895922 -21.95874333 54.13895922 -19 53 C-18.58219121 50.62694422 -18.58219121 50.62694422 -19 48 C-21.1447024 46.24471981 -21.1447024 46.24471981 -24 45 C-24.9178125 44.51273438 -25.835625 44.02546875 -26.78125 43.5234375 C-29.97247161 42.01302921 -32.96236605 41.12588184 -36.375 40.25 C-42.554732 38.42577705 -46.7522297 35.84436725 -51 31 C-52.16171778 28.67656444 -52.12903969 27.30366684 -52.1328125 24.71875 C-52.13410156 23.87699219 -52.13539063 23.03523438 -52.13671875 22.16796875 C-52.13285156 21.28753906 -52.12898438 20.40710938 -52.125 19.5 C-52.12886719 18.61957031 -52.13273437 17.73914063 -52.13671875 16.83203125 C-52.13542969 15.99027344 -52.13414062 15.14851563 -52.1328125 14.28125 C-52.13168457 13.50845703 -52.13055664 12.73566406 -52.12939453 11.93945312 C-52 10 -52 10 -51 8 C-50.34 8 -49.68 8 -49 8 C-48.7525 7.4225 -48.505 6.845 -48.25 6.25 C-45.48293744 1.26928739 -42.20051157 -0.65823105 -36.8125 -2.25 C-24.88808545 -5.37690163 -11.12259748 -6.08400941 0 0 Z " fill="#0C0C0C" transform="translate(391,198)"/>
<path d="M0 0 C6.93 0 13.86 0 21 0 C23.24522049 7.85827173 23.24522049 7.85827173 23.52734375 11.3125 C23.5958252 12.07135498 23.66430664 12.83020996 23.73486328 13.61206055 C23.8017334 14.40008057 23.86860352 15.18810059 23.9375 16 C24.73434664 24.48832984 26.13490967 32.68169712 28 41 C28.99 38.69 29.98 36.38 31 34 C31.66 34 32.32 34 33 34 C33.2475 33.175 33.495 32.35 33.75 31.5 C35.85239761 25.61328669 38.78440986 20.3438944 42 15 C43.75362331 11.94886259 45.4842319 8.88454996 47.21484375 5.8203125 C49.89162562 1.10837438 49.89162562 1.10837438 51 0 C52.63472882 -0.08700342 54.27314055 -0.10701063 55.91015625 -0.09765625 C57.39418945 -0.09282227 57.39418945 -0.09282227 58.90820312 -0.08789062 C59.94912109 -0.07951172 60.99003906 -0.07113281 62.0625 -0.0625 C63.62967773 -0.05573242 63.62967773 -0.05573242 65.22851562 -0.04882812 C67.8190666 -0.03699913 70.40950559 -0.02051689 73 0 C73.495 0.99 73.495 0.99 74 2 C73.443125 2.804375 72.88625 3.60875 72.3125 4.4375 C69.61614115 8.48203828 67.32312414 12.7338993 65 17 C62.18834119 22.16322799 59.26311254 27.1053312 56 32 C54.7778755 34.14495321 53.59310058 36.30836698 52.40917969 38.47460938 C51.05944982 40.89345998 49.65847032 43.26965662 48.2265625 45.640625 C46.09341851 49.18123796 43.97004932 52.72719358 41.859375 56.28125 C40.82291667 58.02083333 39.78645833 59.76041667 38.75 61.5 C38.22148438 62.39203125 37.69296875 63.2840625 37.1484375 64.203125 C36.38660156 65.47929687 36.38660156 65.47929687 35.609375 66.78125 C35.15530273 67.54501953 34.70123047 68.30878906 34.23339844 69.09570312 C33 71 33 71 31 73 C28.0906442 73.14517744 25.280054 73.18630796 22.375 73.125 C21.57320312 73.11597656 20.77140625 73.10695313 19.9453125 73.09765625 C17.96341477 73.07406223 15.98167019 73.03819065 14 73 C8.91887103 51.24696101 8.91887103 51.24696101 7.5234375 42.09765625 C6.82341074 37.9549606 5.94232219 33.85773335 5.0625 29.75 C3.73476542 23.53116658 2.43997422 17.30932014 1.25 11.0625 C1.00765625 9.79535156 0.7653125 8.52820313 0.515625 7.22265625 C0 4 0 4 0 0 Z " fill="#080808" transform="translate(36,196)"/>
<path d="M0 0 C3.98091662 3.02830433 5.95363869 6.50226461 8.17578125 10.8671875 C8.56765625 11.5065625 8.95953125 12.1459375 9.36328125 12.8046875 C11.9009679 19.24650745 11.42579811 25.45463945 9.17578125 31.8671875 C6.09264505 38.55560393 0.93991656 44.99318323 -6.05859375 47.74609375 C-10.93079783 48.94734407 -15.83072276 49.2905282 -20.82421875 48.8671875 C-21.90509766 48.78210938 -21.90509766 48.78210938 -23.0078125 48.6953125 C-29.95096211 47.68452469 -34.29261834 44.07370712 -38.82421875 38.8671875 C-44.26104148 31.54205104 -45.13734329 23.78809705 -43.82421875 14.8671875 C-42.5876548 11.47880754 -40.951761 8.76387039 -38.82421875 5.8671875 C-38.26734375 4.9596875 -37.71046875 4.0521875 -37.13671875 3.1171875 C-26.58322676 -7.15107498 -12.08632751 -7.50542822 0 0 Z " fill="#FB0404" transform="translate(554.82421875,223.1328125)"/>
<path d="M0 0 C1.98 0 3.96 0 6 0 C8.85124018 5.60105284 11.58254953 11.19811888 14 17 C14.33 17.66 14.66 18.32 15 19 C15.16435547 18.07380859 15.16435547 18.07380859 15.33203125 17.12890625 C16.4377266 11.22287499 17.95361435 5.64802441 20 0 C21.98 0 23.96 0 26 0 C27.24454127 4.37573495 26.66539081 7.45537345 25.56640625 11.83203125 C25.40961899 12.46864182 25.25283173 13.10525238 25.09129333 13.76115417 C24.59148948 15.78085934 24.07725435 17.79655928 23.5625 19.8125 C23.21974169 21.18660949 22.87793446 22.5609566 22.53710938 23.93554688 C21.70239819 27.29318549 20.85471126 30.64738952 20 34 C17.69 34 15.38 34 13 34 C10.84246031 29.76197561 8.73401775 25.50982439 6.75 21.1875 C6.41484375 20.45917969 6.0796875 19.73085937 5.734375 18.98046875 C5 17 5 17 5 14 C4.34 14 3.68 14 3 14 C2.95101562 14.94101563 2.90203125 15.88203125 2.8515625 16.8515625 C2.77679688 18.09679687 2.70203125 19.34203125 2.625 20.625 C2.55539063 21.85476562 2.48578125 23.08453125 2.4140625 24.3515625 C2.0185513 27.83653855 1.23738151 30.73049601 0 34 C-1.98 34 -3.96 34 -6 34 C-6.74217284 22.31764974 -4.01999149 10.91140547 0 0 Z " fill="#1A1A1A" transform="translate(103,120)"/>
<path d="M0 0 C4.13108521 2.92618536 5.97424816 6.41540373 8 11 C6 13 6 13 3.625 13.4375 C1 13 1 13 -0.9375 10.5 C-2.79020073 7.72630697 -2.79020073 7.72630697 -5.9375 7.375 C-9.94870142 8.19361253 -11.41640345 9.89968414 -14 13 C-15.16343227 15.32686453 -15.19895988 16.84721413 -15.25 19.4375 C-15.27578125 20.21996094 -15.3015625 21.00242188 -15.328125 21.80859375 C-14.92068073 24.5297394 -14.1715195 25.35986409 -12 27 C-9.13023717 27.83483326 -9.13023717 27.83483326 -6 27 C-3.68435382 24.88913886 -1.82657167 22.53906417 0 20 C1.98 20.66 3.96 21.32 6 22 C4.72047274 27.00178839 2.91534677 29.64398848 -1 33 C-3.3125 34.3125 -3.3125 34.3125 -5 35 C-4.773125 35.763125 -4.54625 36.52625 -4.3125 37.3125 C-4 40 -4 40 -5.19921875 41.6171875 C-7.37466059 43.28770033 -8.78666509 43.54568873 -11.5 43.8125 C-12.2734375 43.90144531 -13.046875 43.99039063 -13.84375 44.08203125 C-16 44 -16 44 -19 42 C-17.84826645 39.53199953 -16.95216435 37.95216435 -15 36 C-14.67 35.34 -14.34 34.68 -14 34 C-15.3921875 33.7215625 -15.3921875 33.7215625 -16.8125 33.4375 C-20 32 -20 32 -21.875 29.0625 C-24.04626891 22.87179875 -23.70715144 16.39645767 -21.875 10.1875 C-16.59544224 1.21225181 -10.21985926 -1.31869152 0 0 Z " fill="#242424" transform="translate(212,120)"/>
<path d="M0 0 C1.66627298 0.03622333 3.33405374 0.04899842 5 0 C5.33 1.65 5.66 3.3 6 5 C4.35 6.32 2.7 7.64 1 9 C1.15146484 9.79696289 1.30292969 10.59392578 1.45898438 11.41503906 C2.14307656 15.02599334 2.82159888 18.6379724 3.5 22.25 C3.73847656 23.50425781 3.97695312 24.75851563 4.22265625 26.05078125 C4.44824219 27.25605469 4.67382812 28.46132812 4.90625 29.703125 C5.11572266 30.81333008 5.32519531 31.92353516 5.54101562 33.06738281 C6 36 6 36 6 40 C3.36 40 0.72 40 -2 40 C-2.33 37.03 -2.66 34.06 -3 31 C-6.3 31 -9.6 31 -13 31 C-13.268125 31.7425 -13.53625 32.485 -13.8125 33.25 C-15.87155963 38.01834862 -15.87155963 38.01834862 -18 40 C-21.6875 40.25 -21.6875 40.25 -25 40 C-24.60108883 35.6119771 -22.82959283 33.21616703 -20.26171875 29.82421875 C-18.37185519 27.0918154 -17.27818412 24.05652724 -16 21 C-14 18 -14 18 -12 15 C-10.89926629 12.69592182 -9.94922191 10.37305478 -9 8 C-9.66 8 -10.32 8 -11 8 C-11.3125 5.1875 -11.3125 5.1875 -11 2 C-7.25155882 -1.41769637 -4.74242065 -1.08680473 0 0 Z M-6 18 C-8.28692024 21.23764755 -8.28692024 21.23764755 -9 25 C-7.35 25 -5.7 25 -4 25 C-4.33 22.69 -4.66 20.38 -5 18 C-5.33 18 -5.66 18 -6 18 Z " fill="#1A1A1A" transform="translate(240,114)"/>
<path d="M0 0 C2.39652528 -0.08139142 4.79025436 -0.14067009 7.1875 -0.1875 C7.86103516 -0.21263672 8.53457031 -0.23777344 9.22851562 -0.26367188 C13.72015225 -0.32940314 16.42778981 0.26411488 20 3 C24.16744514 7.74625697 25.29222054 10.42987175 25.22265625 16.62109375 C24.89200702 20.1538197 23.62389919 22.87249045 22 26 C21.608125 26.9075 21.21625 27.815 20.8125 28.75 C18.05268265 32.17598016 15.2098416 33.26122557 11 34 C5.33653017 34.33442477 -0.33332615 34.17386386 -6 34 C-7.17418128 30.47745617 -6.77558874 28.8126695 -6.07421875 25.1953125 C-5.85443359 24.05449219 -5.63464844 22.91367188 -5.40820312 21.73828125 C-5.17037109 20.54589844 -4.93253906 19.35351562 -4.6875 18.125 C-4.46126953 16.94035156 -4.23503906 15.75570312 -4.00195312 14.53515625 C-3.01155976 9.47187719 -2.05531988 4.7517989 0 0 Z M5 7 C3.25077067 13.9969173 2.46247533 20.80729161 2 28 C7.78809773 27.74779531 11.82600006 27.43487494 16 23 C16.96165069 20.11504794 17.22728086 18.01406646 17.3125 15 C17.36857422 13.700625 17.36857422 13.700625 17.42578125 12.375 C17.20665362 9.87569781 17.20665362 9.87569781 15.24609375 8.19921875 C11.70533524 6.3087616 8.9644578 6.80177711 5 7 Z " fill="#1B1B1B" transform="translate(134,120)"/>
<path d="M0 0 C3.80840691 2.00868187 6.18560382 4.6898844 8.4375 8.3125 C9.88228743 15.21537327 9.39148503 20.7015278 6 27 C3.36912414 30.94631378 1.48250641 32.55691389 -3 34 C-5.9375 34.30078125 -5.9375 34.30078125 -9 34.3125 C-10.010625 34.32925781 -11.02125 34.34601563 -12.0625 34.36328125 C-15.45228068 33.94406635 -17.26809954 33.02188847 -20 31 C-23.5710695 26.07771501 -24.94249085 22.14975279 -24 16 C-22.60401257 9.49370143 -19.20753575 5.08318144 -14 1 C-9.33516852 -0.55494383 -4.86145977 -0.71870953 0 0 Z M-16.375 13.8125 C-17.36008869 17.26031041 -17.69623719 20.46079427 -17 24 C-14.30963932 27.26104325 -12.67580027 27.9034571 -8.5 28.5 C-4.39127202 27.91303886 -2.83355021 26.99546736 0 24 C2.48969231 19.73195604 2.53430603 15.80875431 2 11 C-0.51889853 8.03658996 -2.13384274 7.1658599 -5.9375 6.4375 C-10.68916223 7.31025429 -13.50037481 10.02322134 -16.375 13.8125 Z " fill="#202020" transform="translate(272,120)"/>
<path d="M0 0 C2.375 -0.1875 2.375 -0.1875 5 0 C7 3 7 3 6.5390625 6.00390625 C6.23742187 7.17824219 5.93578125 8.35257813 5.625 9.5625 C4.21941319 15.52540792 3.6202693 20.8961806 4 27 C7.13566218 27.21379515 9.37933889 27.29308997 12.25 25.9375 C16.57272172 21.15162952 16.86668001 12.62864117 17.94335938 6.43359375 C18.89878571 1.10121429 18.89878571 1.10121429 20 0 C21.99958364 -0.04080783 24.00045254 -0.04254356 26 0 C26.80535377 11.27495275 24.12101899 24.05307871 17 33 C13.66749498 34.11083501 11.06961042 34.16759585 7.5625 34.1875 C6.42941406 34.20167969 5.29632813 34.21585938 4.12890625 34.23046875 C1.10028736 34.00738696 -0.50716534 33.67139715 -3 32 C-4.99498403 29.34002129 -6.07866808 27.33481965 -5.87890625 23.9453125 C-5.36765075 21.25782784 -4.70147184 18.64478377 -4 16 C-3.65259634 14.59953958 -3.30772239 13.19845016 -2.96484375 11.796875 C-1.99757854 7.85906565 -1.0040778 3.92857624 0 0 Z " fill="#1E1E1E" transform="translate(72,120)"/>
<path d="M0 0 C2.06196002 5.38799118 2.84480736 10.75721991 3.625 16.4375 C3.7590625 17.35337891 3.893125 18.26925781 4.03125 19.21289062 C4.73227161 24.19515133 5.15222396 28.96968992 5 34 C3.02 34 1.04 34 -1 34 C-1.66 31.03 -2.32 28.06 -3 25 C-6.3 25 -9.6 25 -13 25 C-13.433125 26.11375 -13.433125 26.11375 -13.875 27.25 C-14.82302644 29.56739797 -15.84845911 31.77917115 -17 34 C-19.31 34 -21.62 34 -24 34 C-23.47492864 29.02682413 -21.93784493 25.70725902 -19.375 21.4375 C-18.64936439 20.21453531 -17.92544659 18.99054997 -17.203125 17.765625 C-16.83638672 17.14623047 -16.46964844 16.52683594 -16.09179688 15.88867188 C-13.73860031 11.81793649 -11.60987112 7.62228642 -9.4453125 3.44921875 C-6.9859967 -0.71832451 -4.54205208 -0.09874026 0 0 Z M-6 13 C-6.99 14.98 -7.98 16.96 -9 19 C-7.35 19 -5.7 19 -4 19 C-4.33 17.02 -4.66 15.04 -5 13 C-5.33 13 -5.66 13 -6 13 Z " fill="#161616" transform="translate(180,120)"/>
<path d="M0 0 C6.93 0 13.86 0 21 0 C22 4 22 4 21 7 C16.05 7.33 11.1 7.66 6 8 C5.67 9.65 5.34 11.3 5 13 C5.91523437 13.06058594 6.83046875 13.12117187 7.7734375 13.18359375 C8.96195313 13.26738281 10.15046875 13.35117188 11.375 13.4375 C12.55835937 13.51871094 13.74171875 13.59992188 14.9609375 13.68359375 C18 14 18 14 20 15 C19.67 16.65 19.34 18.3 19 20 C17.45876053 20.17057196 15.91697919 20.33625 14.375 20.5 C13.51648438 20.5928125 12.65796875 20.685625 11.7734375 20.78125 C8.83798006 21.01277904 5.94335123 21.03452611 3 21 C2.79503906 21.85464844 2.59007812 22.70929688 2.37890625 23.58984375 C2.10949219 24.69457031 1.84007812 25.79929688 1.5625 26.9375 C1.16224609 28.59072266 1.16224609 28.59072266 0.75390625 30.27734375 C0 33 0 33 -1 34 C-2.99958364 34.04080783 -5.00045254 34.04254356 -7 34 C-7.33495803 27.67105623 -6.0805112 22.01594893 -4.625 15.875 C-4.40328125 14.89917969 -4.1815625 13.92335937 -3.953125 12.91796875 C-2.89970938 8.37588847 -1.7445667 4.36141676 0 0 Z " fill="#1D1D1D" transform="translate(46,120)"/>
<path d="M0 0 C1.32 0.33 2.64 0.66 4 1 C3.113125 1.721875 2.22625 2.44375 1.3125 3.1875 C-1.62932864 5.64818844 -4.35026571 8.22101038 -7 11 C-7.5465625 11.56332031 -8.093125 12.12664062 -8.65625 12.70703125 C-13.52029279 17.94441066 -16.8031477 23.62971556 -20 30 C-21.32 30 -22.64 30 -24 30 C-24.19916016 28.24623047 -24.19916016 28.24623047 -24.40234375 26.45703125 C-24.58062013 24.90884161 -24.75901161 23.36066522 -24.9375 21.8125 C-25.06801758 20.65911133 -25.06801758 20.65911133 -25.20117188 19.48242188 C-25.64964421 15.61227172 -26.1529001 11.80813376 -27 8 C-26.67 8.66 -26.34 9.32 -26 10 C-25.01 10.33 -24.02 10.66 -23 11 C-22.67 12.98 -22.34 14.96 -22 17 C-21.401875 16.814375 -20.80375 16.62875 -20.1875 16.4375 C-18 16 -18 16 -15 17 C-15 16.34 -15 15.68 -15 15 C-14.34 15 -13.68 15 -13 15 C-12.67 13.68 -12.34 12.36 -12 11 C-11.01 11 -10.02 11 -9 11 C-9 10.01 -9 9.02 -9 8 C-8.01 8 -7.02 8 -6 8 C-6 7.01 -6 6.02 -6 5 C-5.01 5 -4.02 5 -3 5 C-3 4.34 -3 3.68 -3 3 C-2.34 3 -1.68 3 -1 3 C-0.67 2.01 -0.34 1.02 0 0 Z " fill="#EA0907" transform="translate(566,186)"/>
<path d="M0 0 C-0.33 0.66 -0.66 1.32 -1 2 C-1.78375 2.2475 -2.5675 2.495 -3.375 2.75 C-6.90058665 4.42885079 -7.34831451 6.55300419 -9 10 C-10.33333333 10.66666667 -11.66666667 11.33333333 -13 12 C-15.73333761 16.49482184 -16.44138423 20.15734572 -16.6875 25.375 C-16.78611328 27.24285156 -16.78611328 27.24285156 -16.88671875 29.1484375 C-16.92410156 30.08945313 -16.96148438 31.03046875 -17 32 C-16.34 32 -15.68 32 -15 32 C-14.34 34.31 -13.68 36.62 -13 39 C-12.34 39 -11.68 39 -11 39 C-9.9375 40.8125 -9.9375 40.8125 -9 43 C-9.33 43.99 -9.66 44.98 -10 46 C-17.03541845 38.18286839 -19.768231 32.17926849 -19.45703125 21.4140625 C-18.78889903 16.4230577 -16.95906787 13.00243863 -14 9 C-13.071875 7.6078125 -13.071875 7.6078125 -12.125 6.1875 C-8.74008917 2.70303297 -5.00639311 0 0 0 Z " fill="#E24345" transform="translate(530,220)"/>
<path d="M0 0 C-0.28382946 1.75128818 -0.57739529 3.50100003 -0.875 5.25 C-1.03742187 6.22453125 -1.19984375 7.1990625 -1.3671875 8.203125 C-2 11 -2 11 -4 15 C-4.495 10.05 -4.495 10.05 -5 5 C-5.99 5.33 -6.98 5.66 -8 6 C-9.051875 5.79375 -10.10375 5.5875 -11.1875 5.375 C-15.39330585 4.96131418 -17.3873018 5.64939719 -21.10546875 7.40625 C-23.42524787 8.13327356 -24.72913781 7.76534602 -27 7 C-24.62794139 6.01315119 -22.25276513 5.0354245 -19.875 4.0625 C-19.20984375 3.78470703 -18.5446875 3.50691406 -17.859375 3.22070312 C-11.8767069 0.78657836 -6.49184617 -0.15456777 0 0 Z " fill="#E15657" transform="translate(633,111)"/>
<path d="M0 0 C-0.36549426 2.64983336 -0.76128164 3.77833295 -2.75 5.625 C-6.11038644 7.67856949 -9.47273816 8.84790524 -13.25 9.9375 C-14.1575 10.288125 -15.065 10.63875 -16 11 C-16.33 11.99 -16.66 12.98 -17 14 C-19.06640625 14.94921875 -19.06640625 14.94921875 -21.5625 15.6875 C-22.80193359 16.06455078 -22.80193359 16.06455078 -24.06640625 16.44921875 C-24.70449219 16.63097656 -25.34257813 16.81273437 -26 17 C-24.60954781 14.21909562 -22.67318909 13.5482379 -20 12 C-18.38612126 10.88897744 -16.78204678 9.76359398 -15.1875 8.625 C-2.93670382 0 -2.93670382 0 0 0 Z " fill="#E93F41" transform="translate(585,129)"/>
<path d="M0 0 C3.59308995 4.7907866 4.34217645 8.4351435 3.78515625 14.23828125 C2.76373981 19.87066331 0.52860024 24.48781782 -3 29 C-3.33 29 -3.66 29 -4 29 C-4.3227506 24.37390802 -3.84450614 21.71973879 -1 18 C-0.34 18 0.32 18 1 18 C0.67 12.06 0.34 6.12 0 0 Z " fill="#E35152" transform="translate(562,234)"/>
<path d="M0 0 C1.32 0.33 2.64 0.66 4 1 C3.113125 1.721875 2.22625 2.44375 1.3125 3.1875 C-3.73503459 7.40950323 -8.06906292 12.15271118 -12.3515625 17.1328125 C-13.84464982 18.82403463 -15.38585753 20.42498825 -17 22 C-17.33 20.35 -17.66 18.7 -18 17 C-17.01 17 -16.02 17 -15 17 C-15 16.34 -15 15.68 -15 15 C-14.34 15 -13.68 15 -13 15 C-12.67 13.68 -12.34 12.36 -12 11 C-11.01 11 -10.02 11 -9 11 C-9 10.01 -9 9.02 -9 8 C-8.01 8 -7.02 8 -6 8 C-6 7.01 -6 6.02 -6 5 C-5.01 5 -4.02 5 -3 5 C-3 4.34 -3 3.68 -3 3 C-2.34 3 -1.68 3 -1 3 C-0.67 2.01 -0.34 1.02 0 0 Z " fill="#E44B4D" transform="translate(566,186)"/>
<path d="M0 0 C3.60409919 -0.05800828 7.20807851 -0.09359869 10.8125 -0.125 C12.34874023 -0.15013672 12.34874023 -0.15013672 13.91601562 -0.17578125 C14.89892578 -0.18222656 15.88183594 -0.18867188 16.89453125 -0.1953125 C17.80050049 -0.20578613 18.70646973 -0.21625977 19.63989258 -0.22705078 C22 0 22 0 25 2 C25 1.34 25 0.68 25 0 C25.99 0 26.98 0 28 0 C28 0.99 28 1.98 28 3 C18.63250185 3.1820896 9.3412692 2.61326035 0 2 C0 1.34 0 0.68 0 0 Z " fill="#D72B29" transform="translate(592,175)"/>
<path d="M0 0 C0.33 0 0.66 0 1 0 C1.28307925 7.24997422 0.50974035 13.90961228 -1 21 C-1.66 21 -2.32 21 -3 21 C-3.33 24.3 -3.66 27.6 -4 31 C-4.33 31 -4.66 31 -5 31 C-4.65832692 20.22021417 -2.70607824 10.39637502 0 0 Z " fill="#E44A4B" transform="translate(500,91)"/>
<path d="M0 0 C4.875 0.875 4.875 0.875 6 2 C7.41120902 2.22571184 8.83176043 2.39388349 10.25390625 2.53515625 C11.10791016 2.62216797 11.96191406 2.70917969 12.84179688 2.79882812 C13.73962891 2.88583984 14.63746094 2.97285156 15.5625 3.0625 C16.46419922 3.15337891 17.36589844 3.24425781 18.29492188 3.33789062 C20.52958434 3.56253923 22.76457839 3.78305769 25 4 C18.96453776 7.35747568 12.4775179 6.25759494 5.98828125 4.7109375 C3.28340131 3.74377021 1.73111128 2.25797124 0 0 Z " fill="#DD3A3B" transform="translate(521,266)"/>
<path d="M0 0 C-0.11487748 1.58409994 -0.24234508 3.16728963 -0.375 4.75 C-0.44460938 5.63171875 -0.51421875 6.5134375 -0.5859375 7.421875 C-1 10 -1 10 -3 14 C-3.33 10.7 -3.66 7.4 -4 4 C-4.99 4.33 -5.98 4.66 -7 5 C-7.99 4.34 -8.98 3.68 -10 3 C-8.68 3 -7.36 3 -6 3 C-6 2.34 -6 1.68 -6 1 C-3 0 -3 0 0 0 Z " fill="#EC0C0B" transform="translate(632,112)"/>
<path d="M0 0 C-0.33 0.66 -0.66 1.32 -1 2 C-1.78375 2.2475 -2.5675 2.495 -3.375 2.75 C-6.28800765 3.80692672 -6.28800765 3.80692672 -7.5 7 C-9 10 -9 10 -11.6875 11.375 C-12.450625 11.58125 -13.21375 11.7875 -14 12 C-13.5248459 7.72361306 -11.12116265 5.76648508 -8 3 C-3.65517241 0 -3.65517241 0 0 0 Z " fill="#E53E3C" transform="translate(530,220)"/>
<path d="M0 0 C-0.99 1.485 -0.99 1.485 -2 3 C-4.33157492 3.34541851 -6.66508361 3.67794257 -9 4 C-11.26454073 5.46771271 -11.26454073 5.46771271 -13 7 C-13.66 7 -14.32 7 -15 7 C-15 7.66 -15 8.32 -15 9 C-16.98 9 -18.96 9 -21 9 C-17.86612233 6.46879111 -14.61047539 4.76839611 -11 3 C-10.13375 2.46375 -9.2675 1.9275 -8.375 1.375 C-3.2195122 -1.6097561 -3.2195122 -1.6097561 0 0 Z " fill="#E84F51" transform="translate(606,120)"/>
<path d="M0 0 C1.14617548 3.66453289 0.57738289 6.00498018 -0.453125 9.6953125 C-1.41264967 13.73902362 -1.67794851 17.86418086 -2 22 C-2.33 22 -2.66 22 -3 22 C-3.08685287 18.70849875 -3.14033895 15.4172904 -3.1875 12.125 C-3.21263672 11.18785156 -3.23777344 10.25070313 -3.26367188 9.28515625 C-3.27333984 8.38925781 -3.28300781 7.49335938 -3.29296875 6.5703125 C-3.3086792 5.74289551 -3.32438965 4.91547852 -3.34057617 4.06298828 C-3.22818604 3.38220215 -3.1157959 2.70141602 -3 2 C-2.01 1.34 -1.02 0.68 0 0 Z " fill="#E2413F" transform="translate(623,153)"/>
<path d="M0 0 C5.06998019 0.65419099 9.41990777 2.8546409 14 5 C14 5.99 14 6.98 14 8 C14.99 8 15.98 8 17 8 C17 9.32 17 10.64 17 12 C13.7259616 10.61482991 11.33774182 8.61638489 8.66015625 6.30859375 C5.96079078 4.18085861 3.02044796 2.6310419 0 1 C0 0.67 0 0.34 0 0 Z " fill="#E7494B" transform="translate(506,157)"/>
<path d="M0 0 C2.44375992 2.28964893 4.31540229 4.72652191 6.1875 7.5 C6.71730469 8.2734375 7.24710938 9.046875 7.79296875 9.84375 C9 12 9 12 9 15 C7.0625 14.3125 7.0625 14.3125 5 13 C4.25 10.375 4.25 10.375 4 8 C3.01 8 2.02 8 1 8 C-0.35439668 5.29120665 -0.06501451 2.99066732 0 0 Z " fill="#E83131" transform="translate(549,133)"/>
<path d="M0 0 C-8.91 3.465 -8.91 3.465 -18 7 C-18 6.01 -18 5.02 -18 4 C-14.77208445 1.8480563 -13.71599191 1.79913557 -10 2 C-10 1.34 -10 0.68 -10 0 C-6.05523353 -0.80688405 -4.00001715 -1.00000429 0 0 Z " fill="#E34746" transform="translate(589,179)"/>
<path d="M0 0 C0.33 0 0.66 0 1 0 C1.02699725 2.27076842 1.04639453 4.54162821 1.0625 6.8125 C1.07410156 8.07707031 1.08570313 9.34164062 1.09765625 10.64453125 C1 14 1 14 0 17 C-0.99 17 -1.98 17 -3 17 C-2.36934845 11.2190275 -1.34844868 5.6556294 0 0 Z " fill="#EB494C" transform="translate(494,122)"/>
<path d="M0 0 C0.33 0 0.66 0 1 0 C1.33 3.63 1.66 7.26 2 11 C4.97 11.495 4.97 11.495 8 12 C8 12.66 8 13.32 8 14 C5.03 13.67 2.06 13.34 -1 13 C-1.07654536 8.48382401 -1.10228696 4.40914783 0 0 Z " fill="#E05C5F" transform="translate(490,139)"/>
<path d="M0 0 C0.99 0 1.98 0 3 0 C2.29337199 3.67446567 0.81159884 6.73912209 -1 10 C-1.99 10.495 -1.99 10.495 -3 11 C-3.32136655 6.39374606 -2.91033076 3.66486096 0 0 Z " fill="#E93938" transform="translate(561,252)"/>
<path d="M0 0 C1.98 0.99 1.98 0.99 4 2 C4 2.99 4 3.98 4 5 C4.99 5.33 5.98 5.66 7 6 C8.6900877 9.80269732 9.19873962 12.05272168 8 16 C5.33333333 10.66666667 2.66666667 5.33333333 0 0 Z " fill="#E45353" transform="translate(530,178)"/>
<path d="M0 0 C0.99 0 1.98 0 3 0 C1.22054913 4.04420651 -1.39529673 7.46078487 -4 11 C-6 8 -6 8 -6 6 C-5.01 6 -4.02 6 -3 6 C-3 5.34 -3 4.68 -3 4 C-2.34 4 -1.68 4 -1 4 C-0.67 2.68 -0.34 1.36 0 0 Z " fill="#EA3F3E" transform="translate(554,197)"/>
<path d="M0 0 C5.66710699 1.31793186 7.66437233 3.48709197 11 8 C10.01 8.33 9.02 8.66 8 9 C8 8.34 8 7.68 8 7 C7.0409375 6.566875 7.0409375 6.566875 6.0625 6.125 C4 5 4 5 3 3 C0.98330173 1.86649466 0.98330173 1.86649466 -1 1 C-0.67 0.67 -0.34 0.34 0 0 Z " fill="#E84D4D" transform="translate(549,221)"/>
<path d="M0 0 C5.20142984 2.44773169 7.82188865 6.40211381 11 11 C10.01 11 9.02 11 8 11 C7.7525 10.38125 7.505 9.7625 7.25 9.125 C6.18539778 6.85708859 6.18539778 6.85708859 4 6.0625 C1.25013332 4.60163333 0.91166696 2.88694538 0 0 Z " fill="#E64344" transform="translate(523,102)"/>
<path d="M0 0 C0.33 0 0.66 0 1 0 C1.20674944 5.78898419 0.59162079 10.42932723 -1 16 C-1.33 16 -1.66 16 -2 16 C-2.2358396 10.22192976 -1.86783046 5.48675196 0 0 Z " fill="#E25E5E" transform="translate(626,137)"/>
<path d="M0 0 C2.38639606 2.14775645 3.87068782 3.67291626 5.0625 6.6875 C5.371875 7.450625 5.68125 8.21375 6 9 C6.99 9.33 7.98 9.66 9 10 C9.6875 12.0625 9.6875 12.0625 10 14 C6.14325624 12.5243763 4.78176265 10.52993107 2.75 7 C2.22921875 6.113125 1.7084375 5.22625 1.171875 4.3125 C0 2 0 2 0 0 Z " fill="#E8736F" transform="translate(539,119)"/>
<path d="M0 0 C2.60444348 -0.05394705 5.20776998 -0.09364469 7.8125 -0.125 C8.55048828 -0.14175781 9.28847656 -0.15851563 10.04882812 -0.17578125 C13.91246426 -0.21074628 15.70903668 -0.19397555 19 2 C17.35 2.33 15.7 2.66 14 3 C14 2.34 14 1.68 14 1 C9.38 1 4.76 1 0 1 C0 0.67 0 0.34 0 0 Z " fill="#E70F0F" transform="translate(530,220)"/>
<path d="M0 0 C2.88575819 0.39803561 3.82189513 0.79009069 5.75 3.0625 C6.1625 3.701875 6.575 4.34125 7 5 C6.05125 4.938125 5.1025 4.87625 4.125 4.8125 C2.578125 4.9053125 2.578125 4.9053125 1 5 C0.34 5.99 -0.32 6.98 -1 8 C-0.67 5.36 -0.34 2.72 0 0 Z " fill="#E04444" transform="translate(502,83)"/>
<path d="M0 0 C0.66 0.33 1.32 0.66 2 1 C0.3125 3.5 0.3125 3.5 -2 6 C-4.75 6.3125 -4.75 6.3125 -7 6 C-6 3 -6 3 -3.0625 1.25 C-2.051875 0.8375 -1.04125 0.425 0 0 Z " fill="#ED070A" transform="translate(565,143)"/>
<path d="M0 0 C-1.875 5.75 -1.875 5.75 -3 8 C-4.32 8 -5.64 8 -7 8 C-6.67 7.01 -6.34 6.02 -6 5 C-6 5.66 -6 6.32 -6 7 C-5.34 7 -4.68 7 -4 7 C-4 5.02 -4 3.04 -4 1 C-2 0 -2 0 0 0 Z " fill="#E55E5D" transform="translate(549,208)"/>
<path d="M0 0 C0.33 0.66 0.66 1.32 1 2 C-1.23775234 5.3566285 -1.93320048 5.57996014 -5.625 6.6875 C-6.44226563 6.93886719 -7.25953125 7.19023437 -8.1015625 7.44921875 C-8.72804688 7.63097656 -9.35453125 7.81273437 -10 8 C-8.61349567 5.22699134 -6.65746752 4.54503926 -4 3 C-2.65368175 2.01755155 -1.31558703 1.02323436 0 0 Z " fill="#E55857" transform="translate(569,138)"/>
<path d="M0 0 C3.19376532 1.59688266 4.57591496 4.83383035 6 8 C6 8.99 6 9.98 6 11 C4.98805294 9.92781799 3.99081943 8.84173622 3 7.75 C2.443125 7.14671875 1.88625 6.5434375 1.3125 5.921875 C0 4 0 4 0 0 Z " fill="#E5322F" transform="translate(534,113)"/>
<path d="M0 0 C3.16115776 1.36983503 3.9927092 1.9890638 6 5 C2.25 6.125 2.25 6.125 0 5 C0 3.35 0 1.7 0 0 Z " fill="#EF4E4F" transform="translate(517,96)"/>
<path d="M0 0 C0.33 0.66 0.66 1.32 1 2 C1.99 2.33 2.98 2.66 4 3 C4 4.98 4 6.96 4 9 C3.01 9.495 3.01 9.495 2 10 C1.34 6.7 0.68 3.4 0 0 Z " fill="#E94748" transform="translate(539,194)"/>
<path d="M0 0 C2.40072955 2.88087546 4.47291037 5.56404834 6 9 C3.525 8.01 3.525 8.01 1 7 C0.67 4.69 0.34 2.38 0 0 Z " fill="#E84949" transform="translate(553,139)"/>
<path d="M0 0 C1.45606519 4.52092968 0.27032841 7.51648796 -1 12 C-1.33 12 -1.66 12 -2 12 C-2.05422947 10.5629191 -2.09289723 9.12524538 -2.125 7.6875 C-2.14820313 6.88699219 -2.17140625 6.08648437 -2.1953125 5.26171875 C-2 3 -2 3 0 0 Z " fill="#EF6263" transform="translate(631,114)"/>
<path d="M0 0 C0.99 0 1.98 0 3 0 C3 0.99 3 1.98 3 3 C-0.63 3 -4.26 3 -8 3 C-8 2.67 -8 2.34 -8 2 C-5.36 2 -2.72 2 0 2 C0 1.34 0 0.68 0 0 Z " fill="#E4716C" transform="translate(617,175)"/>
</svg>
